<svg width="40" height="40" viewBox="0 0 40 40" fill="none" xmlns="http://www.w3.org/2000/svg">
<g clip-path="url(#clip0_1384_18722)">
<path d="M35.1484 25.4609C36.0547 26.375 36.5391 27.5859 36.5391 28.7734C36.5391 31.3438 34.3125 33.4609 31.4531 33.75C31.4844 33.9688 31.5078 34.1875 31.5078 34.4141C31.5078 37.1797 28.9297 39.4219 25.7578 39.4219C23.3906 39.4219 21.3594 38.1797 20.4766 36.3984C20.3828 36.2188 20.1953 36.125 20.0078 36.125C19.8203 36.125 19.625 36.2188 19.5391 36.3984C19.2734 36.9375 18.8906 37.4375 18.4297 37.8594C17.3828 38.8203 15.8984 39.4219 14.2578 39.4219C11.0781 39.4219 8.50781 37.1797 8.50781 34.4141C8.50781 34.1875 8.53125 33.9688 8.5625 33.75C5.69531 33.4609 3.47656 31.3438 3.47656 28.7734C3.47656 27.5859 3.96094 26.375 4.86719 25.4609C2.39844 24.8906 0.585938 22.9453 0.585938 20.625C0.585938 19.2891 1.17969 17.9297 2.41406 16.875C1.72656 16.2109 1.30469 15.3281 1.30469 14.3672C1.30469 12.3281 3.16406 10.6797 5.48438 10.6172C5.11719 10.0625 4.89844 9.42188 4.89844 8.73438C4.89844 6.65626 6.82812 4.97657 9.21094 4.97657C9.4375 4.97657 9.71094 5 9.9375 5.03125C9.9375 4.99219 9.92969 4.95313 9.92969 4.90625C9.96875 2.57813 12.2188 0.625004 14.8906 0.593754C16.2969 0.578129 17.5703 1.0625 18.4922 1.85157C18.9219 2.21875 19.2734 2.64844 19.5312 3.13282C19.625 3.30469 19.8125 3.39844 20 3.39844C20.1875 3.39844 20.375 3.3125 20.4688 3.13282C21.2812 1.61719 23.0547 0.570317 25.1094 0.593754C27.7812 0.625004 30.0312 2.58594 30.0703 4.90625C30.0703 4.94532 30.0625 4.98438 30.0625 5.03125C30.2891 5 30.5703 4.97657 30.7891 4.97657C33.1719 4.97657 35.1016 6.65626 35.1016 8.73438C35.1016 9.42188 34.8828 10.0625 34.5156 10.6172C36.8359 10.6797 38.6953 12.3359 38.6953 14.3672C38.6953 15.3359 38.2734 16.2109 37.5859 16.875C38.8203 17.9297 39.4141 19.2891 39.4141 20.625C39.4141 22.9453 37.6016 24.8906 35.1484 25.4609Z" fill="#FF76B4"/>
<path d="M35.1484 25.4609C36.0547 26.375 36.5391 27.5859 36.5391 28.7734C36.5391 31.3438 34.3125 33.4609 31.4531 33.75C31.4844 33.9688 31.5078 34.1875 31.5078 34.4141C31.5078 37.1797 28.9297 39.4219 25.7578 39.4219C23.3906 39.4219 21.3594 38.1797 20.4766 36.3984C20.3828 36.2188 20.1953 36.125 20.0078 36.125V3.39063C20.1953 3.39063 20.3828 3.30469 20.4766 3.125C21.2891 1.60938 23.0625 0.562504 25.1172 0.585942C27.7891 0.617192 30.0391 2.57813 30.0781 4.89844C30.0781 4.9375 30.0703 4.97657 30.0703 5.02344C30.2969 4.99219 30.5781 4.96875 30.7969 4.96875C33.1797 4.96875 35.1094 6.64844 35.1094 8.72657C35.1094 9.41407 34.8906 10.0547 34.5234 10.6094C36.8438 10.6719 38.7031 12.3281 38.7031 14.3594C38.7031 15.3281 38.2812 16.2031 37.5938 16.8672C38.8281 17.9219 39.4219 19.2813 39.4219 20.6172C39.4141 22.9453 37.6016 24.8906 35.1484 25.4609Z" fill="#66F1FF"/>
<path d="M19.5306 3.12498C19.2728 2.64061 18.9212 2.21092 18.4916 1.84373C18.4603 1.90623 18.4212 1.96092 18.39 2.02342C17.7806 3.16405 18.2103 4.58592 19.3587 5.1953C19.5619 5.30467 19.7806 5.3828 19.9916 5.42186V3.39061C19.8119 3.39061 19.6244 3.29686 19.5306 3.12498Z" fill="#DD62C6"/>
<path d="M17.6562 36.1172C17.6562 36.8047 17.9531 37.4219 18.4219 37.8516C18.8828 37.4297 19.2578 36.9375 19.5312 36.3906C19.625 36.2109 19.8125 36.1172 20 36.1172V33.7734C18.7031 33.7734 17.6562 34.8281 17.6562 36.1172Z" fill="#DD62C6"/>
<path d="M35.1484 25.4609C36.0547 26.375 36.5391 27.5859 36.5391 28.7734C36.5391 31.3438 34.3125 33.4609 31.4531 33.75C31.4844 33.9688 31.5078 34.1875 31.5078 34.4141C31.5078 37.1797 28.9297 39.4219 25.7578 39.4219C23.3906 39.4219 21.3594 38.1797 20.4766 36.3984C20.3828 36.2188 20.1953 36.125 20.0078 36.125V33.7813C21.1094 33.7813 22.0938 34.3828 22.5781 35.3516C23.0859 36.3828 24.3672 37.0703 25.7578 37.0703C27.6016 37.0703 29.1641 35.8516 29.1641 34.4063C29.1641 34.3281 29.1562 34.2266 29.1328 34.0938C29.0391 33.4609 29.2031 32.8125 29.6016 32.3047C29.9922 31.7969 30.5781 31.4766 31.2188 31.4063C32.8906 31.2422 34.1953 30.0781 34.1953 28.7656C34.1953 28.1641 33.9375 27.5625 33.4844 27.1094C32.8828 26.5078 32.6562 25.625 32.8906 24.8125C33.125 24 33.7812 23.3672 34.6094 23.1797C36.0547 22.8438 37.0625 21.7969 37.0625 20.6328C37.0625 19.9141 36.7031 19.2188 36.0547 18.6563C35.5547 18.2266 35.2578 17.6094 35.2344 16.9453C35.2109 16.2891 35.4688 15.6484 35.9453 15.1875C36.125 15.0156 36.3359 14.7266 36.3359 14.3594C36.3359 13.625 35.4687 12.9766 34.4375 12.9531C33.5859 12.9297 32.8125 12.4453 32.4219 11.6875C32.0312 10.9297 32.0781 10.0156 32.5547 9.30469C32.6797 9.11719 32.75 8.92188 32.75 8.71875C32.75 7.95313 31.8516 7.30469 30.7812 7.30469C30.6953 7.30469 30.5234 7.32032 30.3594 7.33594C29.6562 7.42969 28.9531 7.19532 28.4375 6.71094C27.9297 6.23438 27.6641 5.55469 27.7109 4.85938C27.6328 3.76563 26.2734 2.9375 25.0703 2.92188H25.0312C23.9453 2.92188 22.9453 3.4375 22.5312 4.21875C22.0312 5.16407 20.9922 5.625 20 5.42188V3.39063C20.1875 3.39063 20.375 3.30469 20.4688 3.125C21.2812 1.60938 23.0547 0.562504 25.1094 0.585942C27.7812 0.617192 30.0312 2.57813 30.0703 4.89844C30.0703 4.9375 30.0625 4.97657 30.0625 5.02344C30.2891 4.99219 30.5703 4.96875 30.7891 4.96875C33.1719 4.96875 35.1016 6.64844 35.1016 8.72657C35.1016 9.41407 34.8828 10.0547 34.5156 10.6094C36.8359 10.6719 38.6953 12.3281 38.6953 14.3594C38.6953 15.3281 38.2734 16.2031 37.5859 16.8672C38.8203 17.9219 39.4141 19.2813 39.4141 20.6172C39.4141 22.9453 37.6016 24.8906 35.1484 25.4609Z" fill="#66D4FF"/>
<path d="M25.3984 33.6094C26.0456 33.6094 26.5703 33.0847 26.5703 32.4375C26.5703 31.7903 26.0456 31.2656 25.3984 31.2656C24.7512 31.2656 24.2266 31.7903 24.2266 32.4375C24.2266 33.0847 24.7512 33.6094 25.3984 33.6094Z" fill="white"/>
<path d="M25.3984 9.71094C26.0456 9.71094 26.5703 9.18627 26.5703 8.53906C26.5703 7.89185 26.0456 7.36719 25.3984 7.36719C24.7512 7.36719 24.2266 7.89185 24.2266 8.53906C24.2266 9.18627 24.7512 9.71094 25.3984 9.71094Z" fill="white"/>
<path d="M30.4453 29.7344C31.0925 29.7344 31.6172 29.2097 31.6172 28.5625C31.6172 27.9153 31.0925 27.3906 30.4453 27.3906C29.7981 27.3906 29.2734 27.9153 29.2734 28.5625C29.2734 29.2097 29.7981 29.7344 30.4453 29.7344Z" fill="white"/>
<path d="M30.4453 13.4688C31.0925 13.4688 31.6172 12.9441 31.6172 12.2969C31.6172 11.6497 31.0925 11.125 30.4453 11.125C29.7981 11.125 29.2734 11.6497 29.2734 12.2969C29.2734 12.9441 29.7981 13.4688 30.4453 13.4688Z" fill="white"/>
<path d="M25.7507 40C23.2741 40 21.0319 38.7344 20.0007 36.7578C18.9616 38.7344 16.7194 40 14.2507 40C10.7585 40 7.91472 37.4922 7.91472 34.4063C7.91472 34.3516 7.91472 34.2969 7.91472 34.2422C6.22722 33.9375 4.76628 33.0391 3.84441 31.7344C3.65691 31.4688 3.71941 31.1016 3.98503 30.9141C4.25066 30.7266 4.61785 30.7891 4.80535 31.0547C5.62566 32.2109 7.05535 33 8.61785 33.1563C8.7741 33.1719 8.92253 33.25 9.0241 33.3828C9.12566 33.5078 9.16472 33.6719 9.14128 33.8281C9.11003 34.0469 9.09441 34.2344 9.09441 34.3984C9.09441 36.8359 11.4147 38.8203 14.2585 38.8203C16.3366 38.8203 18.2038 37.7656 19.0163 36.125C19.2038 35.7578 19.5788 35.5234 20.0085 35.5234C20.4382 35.5234 20.821 35.75 21.0007 36.125C21.8132 37.7656 23.6803 38.8203 25.7585 38.8203C28.61 38.8203 30.9225 36.8359 30.9225 34.3984C30.9225 34.2266 30.9069 34.0469 30.8757 33.8203C30.8522 33.6641 30.8913 33.5 30.9928 33.375C31.0944 33.25 31.235 33.1641 31.3991 33.1484C32.1413 33.0703 32.8444 32.8672 33.485 32.5313C33.7741 32.3828 34.1257 32.4922 34.2741 32.7813C34.4225 33.0703 34.3132 33.4219 34.0241 33.5703C33.4225 33.8828 32.7741 34.1094 32.0944 34.2344V34.3984C32.0944 37.4922 29.2507 40 25.7507 40Z" fill="black"/>
<path d="M3.46094 29.3516C3.14062 29.3516 2.875 29.0859 2.875 28.7656C2.875 27.7031 3.21875 26.6484 3.83594 25.7578C1.53906 24.8906 0 22.8828 0 20.625C0 19.2266 0.5625 17.9063 1.59375 16.8359C1.02344 16.1094 0.71875 15.25 0.71875 14.3594C0.71875 12.2734 2.35156 10.5391 4.57812 10.1172C4.40625 9.67188 4.32031 9.19531 4.32031 8.72656C4.32031 7.36719 5.01562 6.10938 6.23438 5.28125C6.5 5.10156 6.86719 5.17188 7.04688 5.4375C7.22656 5.70313 7.15625 6.07031 6.89062 6.25C6 6.85938 5.48438 7.75781 5.48438 8.72656C5.48438 9.26563 5.65625 9.80469 5.96875 10.2891C6.08594 10.4688 6.10156 10.6953 6 10.8828C5.89844 11.0703 5.71094 11.1953 5.49219 11.2031C3.46875 11.2578 1.88281 12.6484 1.88281 14.3672C1.88281 15.1328 2.21094 15.875 2.8125 16.4531C2.92969 16.5703 2.99219 16.7266 2.99219 16.8906C2.98438 17.0547 2.91406 17.2109 2.78906 17.3203C1.75 18.2188 1.17188 19.3906 1.17188 20.625C1.17188 22.6094 2.74219 24.3672 4.98438 24.8828C5.1875 24.9297 5.35938 25.0859 5.41406 25.2891C5.47656 25.4922 5.41406 25.7109 5.26562 25.8672C4.49219 26.6484 4.04688 27.7031 4.04688 28.7656C4.04688 29.0938 3.78906 29.3516 3.46094 29.3516Z" fill="black"/>
<path d="M35.8125 31.7891C35.7031 31.7891 35.5938 31.7578 35.5 31.6953C35.2266 31.5234 35.1484 31.1562 35.3203 30.8828C35.7344 30.2344 35.9531 29.5 35.9531 28.7656C35.9531 27.7031 35.5078 26.6484 34.7344 25.8672C34.5859 25.7187 34.5313 25.5 34.5859 25.2891C34.6406 25.0781 34.8125 24.9297 35.0156 24.8828C37.2656 24.3594 38.8281 22.6094 38.8281 20.625C38.8281 19.3906 38.25 18.2109 37.2109 17.3203C37.0859 17.2109 37.0156 17.0547 37.0078 16.8906C37 16.7266 37.0703 16.5703 37.1875 16.4531C37.7891 15.875 38.1172 15.1328 38.1172 14.3672C38.1172 12.6484 36.5313 11.2578 34.5078 11.2031C34.2969 11.1953 34.1016 11.0781 34 10.8906C33.8984 10.7031 33.9141 10.4766 34.0312 10.2969C34.3516 9.82031 34.5156 9.28124 34.5156 8.73437C34.5156 6.98437 32.8438 5.56249 30.7891 5.56249C30.6094 5.56249 30.3594 5.57812 30.1406 5.60937C29.9688 5.63281 29.7891 5.57812 29.6641 5.45312C29.5391 5.32812 29.4688 5.15624 29.4844 4.98437V4.94531C29.4844 4.93749 29.4844 4.92187 29.4844 4.91406C29.4453 2.92187 27.4453 1.21093 25.1016 1.17968C23.3359 1.15624 21.7188 2.03124 20.9844 3.40624C20.7969 3.75781 20.4219 3.97656 20 3.97656C19.5859 3.97656 19.2031 3.75781 19.0156 3.40624C18.2812 2.02343 16.6719 1.14843 14.8984 1.17187C12.5625 1.20312 10.5547 2.91406 10.5156 4.90624V4.92968V4.96874C10.5313 5.14843 10.4609 5.32031 10.3359 5.43749C10.2109 5.56249 10.0312 5.61718 9.85937 5.59374C9.64062 5.56249 9.39062 5.54687 9.21094 5.54687C8.89062 5.54687 8.625 5.28124 8.625 4.96093C8.625 4.64062 8.89062 4.37499 9.21094 4.37499H9.38281C9.53125 3.27343 10.1094 2.24218 11.0391 1.42968C12.0938 0.531243 13.4609 0.0156181 14.8906 -6.89126e-06C17.0469 -0.0234444 19.0469 1.05468 20 2.75781C20.9453 1.07031 22.9062 -6.89126e-06 25.0312 -6.89126e-06H25.1094C26.5391 0.0156181 27.9063 0.531243 28.9531 1.43749C29.8828 2.24999 30.4609 3.28124 30.6094 4.38281H30.7812C33.4844 4.38281 35.6797 6.32812 35.6797 8.72655C35.6797 9.20312 35.5938 9.67187 35.4219 10.1172C37.6406 10.5391 39.2812 12.2734 39.2812 14.3594C39.2812 15.25 38.9766 16.1094 38.4062 16.8359C39.4375 17.8984 40 19.2266 40 20.625C40 22.8828 38.4609 24.8906 36.1562 25.7578C36.7734 26.6484 37.1172 27.7031 37.1172 28.7656C37.1172 29.7344 36.8359 30.6875 36.2969 31.5156C36.1953 31.6953 36.0078 31.7891 35.8125 31.7891Z" fill="black"/>
<path d="M7.42188 11.9141C7.28125 11.9141 7.14844 11.8672 7.03125 11.7656C6.40625 11.2109 5.49219 11.1953 5.48437 11.1953C5.16406 11.1953 4.89844 10.9297 4.89844 10.6094C4.89844 10.2891 5.15625 10.0234 5.48437 10.0234C5.54687 10.0234 6.84375 10.0312 7.80469 10.8906C8.04688 11.1016 8.07031 11.4766 7.85156 11.7187C7.74219 11.8516 7.58594 11.9141 7.42188 11.9141Z" fill="black"/>
<path d="M8.55497 34.3281C8.53154 34.3281 8.50029 34.3281 8.47685 34.3203C8.15654 34.2734 7.92997 33.9844 7.97685 33.6641C7.98466 33.6094 8.16435 32.2969 9.1331 31.3594C9.36747 31.1328 9.73466 31.1406 9.96122 31.375C10.1878 31.6094 10.18 31.9766 9.9456 32.2031C9.28154 32.8438 9.1331 33.8125 9.1331 33.8203C9.09404 34.1172 8.84404 34.3281 8.55497 34.3281Z" fill="black"/>
<path d="M35.7731 18.3203C35.4684 18.3203 35.2106 18.0859 35.1871 17.7813C35.1637 17.4609 35.4059 17.1797 35.7262 17.1484C36.5465 17.0859 37.1559 16.4688 37.1637 16.4609C37.3902 16.2344 37.7574 16.2266 37.9918 16.4531C38.2184 16.6797 38.2262 17.0469 37.9996 17.2813C37.9606 17.3203 37.0777 18.2109 35.8121 18.3125C35.8043 18.3203 35.7887 18.3203 35.7731 18.3203Z" fill="black"/>
<path d="M29.2804 7.79689C29.1476 7.79689 29.0148 7.75002 28.9054 7.66408C28.6554 7.45314 28.6242 7.08595 28.8351 6.83595C29.4679 6.08595 29.4835 4.91408 29.4835 4.90627C29.4835 4.58595 29.7492 4.32033 30.0695 4.32033C30.3898 4.32033 30.6554 4.58595 30.6554 4.90627C30.6554 4.96877 30.6476 6.50002 29.7335 7.59377C29.6164 7.72658 29.4523 7.79689 29.2804 7.79689Z" fill="black"/>
<path d="M20 36.7031C19.6797 36.7031 19.4141 36.4375 19.4141 36.1172V10.1484C19.4141 9.82812 19.6797 9.5625 20 9.5625C20.3203 9.5625 20.5859 9.82812 20.5859 10.1484V36.1172C20.5859 36.4453 20.3203 36.7031 20 36.7031Z" fill="black"/>
<path d="M20 8.03125C19.6797 8.03125 19.4141 7.76563 19.4141 7.44531V3.39063C19.4141 3.07031 19.6797 2.80469 20 2.80469C20.3203 2.80469 20.5859 3.07031 20.5859 3.39063V7.44531C20.5859 7.76563 20.3203 8.03125 20 8.03125Z" fill="black"/>
<path d="M25.3984 34.1953C24.4297 34.1953 23.6406 33.4062 23.6406 32.4375C23.6406 31.4688 24.4297 30.6797 25.3984 30.6797C26.3672 30.6797 27.1562 31.4688 27.1562 32.4375C27.1562 33.4062 26.3672 34.1953 25.3984 34.1953ZM25.3984 31.8516C25.0781 31.8516 24.8125 32.1172 24.8125 32.4375C24.8125 32.7578 25.0781 33.0234 25.3984 33.0234C25.7188 33.0234 25.9844 32.7578 25.9844 32.4375C25.9844 32.1172 25.7266 31.8516 25.3984 31.8516Z" fill="black"/>
<path d="M25.9844 31.2656H24.8125C24.8125 30.2031 24.5703 29.4219 24.0859 28.9531C23.2891 28.1875 21.8672 28.2422 20.7266 28.2813C20.4687 28.2891 20.2344 28.2969 20.0078 28.2969V27.125C20.2109 27.125 20.4453 27.1172 20.6875 27.1094C21.9844 27.0625 23.7578 27 24.9062 28.1094C25.6172 28.8125 25.9844 29.875 25.9844 31.2656Z" fill="black"/>
<path d="M25.3984 10.2969C24.4297 10.2969 23.6406 9.50781 23.6406 8.53906C23.6406 7.57031 24.4297 6.78125 25.3984 6.78125C26.3672 6.78125 27.1562 7.57031 27.1562 8.53906C27.1562 9.50781 26.3672 10.2969 25.3984 10.2969ZM25.3984 7.95312C25.0781 7.95312 24.8125 8.21875 24.8125 8.53906C24.8125 8.85938 25.0781 9.125 25.3984 9.125C25.7188 9.125 25.9844 8.85938 25.9844 8.53906C25.9844 8.21875 25.7266 7.95312 25.3984 7.95312Z" fill="black"/>
<path d="M21.5547 13.8828C21.25 13.8828 20.9531 13.875 20.6797 13.8594C20.4375 13.8516 20.2031 13.8438 20 13.8438V12.6719C20.2266 12.6719 20.4688 12.6797 20.7188 12.6875C21.8672 12.7266 23.2891 12.7813 24.0781 12.0156C24.5625 11.5469 24.8047 10.7734 24.8047 9.70312H25.9766C25.9766 11.1016 25.6094 12.1563 24.8906 12.8594C23.9922 13.7344 22.6953 13.8828 21.5547 13.8828Z" fill="black"/>
<path d="M30.4453 30.3203C29.4766 30.3203 28.6875 29.5312 28.6875 28.5625C28.6875 27.5938 29.4766 26.8047 30.4453 26.8047C31.4141 26.8047 32.2031 27.5938 32.2031 28.5625C32.2031 29.5312 31.4141 30.3203 30.4453 30.3203ZM30.4453 27.9766C30.125 27.9766 29.8594 28.2422 29.8594 28.5625C29.8594 28.8828 30.125 29.1484 30.4453 29.1484C30.7656 29.1484 31.0312 28.8828 31.0312 28.5625C31.0312 28.2422 30.7734 27.9766 30.4453 27.9766Z" fill="black"/>
<path d="M31.0313 27.3906H29.8594C29.8594 23.6016 26.6562 23.4375 20 23.4375V22.2656C23.1016 22.2656 25.7813 22.2656 27.7031 22.8594C29.9453 23.5469 31.0313 25.0234 31.0313 27.3906Z" fill="black"/>
<path d="M30.4453 14.0547C29.4766 14.0547 28.6875 13.2656 28.6875 12.2969C28.6875 11.3281 29.4766 10.5391 30.4453 10.5391C31.4141 10.5391 32.2031 11.3281 32.2031 12.2969C32.2031 13.2656 31.4141 14.0547 30.4453 14.0547ZM30.4453 11.7109C30.125 11.7109 29.8594 11.9766 29.8594 12.2969C29.8594 12.6172 30.125 12.8828 30.4453 12.8828C30.7656 12.8828 31.0312 12.6172 31.0312 12.2969C31.0312 11.9766 30.7734 11.7109 30.4453 11.7109Z" fill="black"/>
<path d="M20 18.6016V17.4297C26.6562 17.4297 29.8594 17.2578 29.8594 13.4766H31.0313C31.0313 15.8359 29.9453 17.3203 27.7031 18.0078C25.7813 18.6016 23.1016 18.6016 20 18.6016Z" fill="black"/>
<path d="M32.3281 21.0703C32.2891 21.0703 32.25 21.0625 32.2109 21.0547C32.1719 21.0469 32.1328 21.0391 32.1016 21.0234C32.0625 21.0078 32.0313 20.9922 32 20.9687C31.9688 20.9453 31.9375 20.9219 31.9141 20.8984C31.8047 20.7891 31.7422 20.6406 31.7422 20.4844C31.7422 20.4453 31.7422 20.4062 31.75 20.3672C31.7578 20.3281 31.7656 20.2891 31.7812 20.2578C31.7969 20.2187 31.8125 20.1875 31.8359 20.1562C31.8594 20.125 31.8828 20.0937 31.9063 20.0703C31.9297 20.0469 31.9609 20.0156 31.9922 20C32.0234 19.9766 32.0547 19.9609 32.0938 19.9453C32.1328 19.9297 32.1641 19.9219 32.2031 19.9141C32.3906 19.875 32.5938 19.9375 32.7344 20.0703C32.7578 20.1016 32.7891 20.125 32.8047 20.1562C32.8281 20.1875 32.8438 20.2266 32.8594 20.2578C32.875 20.2891 32.8828 20.3281 32.8906 20.3672C32.8984 20.4062 32.9063 20.4453 32.9063 20.4844C32.9063 20.5234 32.9063 20.5625 32.8906 20.6016C32.8828 20.6406 32.875 20.6719 32.8594 20.7109C32.8438 20.75 32.8281 20.7812 32.8047 20.8125C32.7813 20.8437 32.7578 20.875 32.7344 20.8984C32.6328 21.0078 32.4844 21.0703 32.3281 21.0703Z" fill="black"/>
<path d="M28.3437 21.0703C28.3047 21.0703 28.2656 21.0625 28.2266 21.0547C28.1875 21.0469 28.1484 21.0391 28.1172 21.0234C28.0781 21.0078 28.0469 20.9922 28.0156 20.9687C27.9844 20.9453 27.9531 20.9219 27.9297 20.8984C27.9063 20.875 27.875 20.8437 27.8594 20.8125C27.8359 20.7812 27.8203 20.75 27.8047 20.7109C27.7891 20.6719 27.7813 20.6406 27.7734 20.6016C27.7656 20.5625 27.7656 20.5234 27.7656 20.4844C27.7656 20.4453 27.7656 20.4063 27.7734 20.3672C27.7813 20.3281 27.7891 20.2891 27.8047 20.2578C27.8203 20.2187 27.8359 20.1875 27.8594 20.1563C27.8828 20.125 27.9063 20.0937 27.9297 20.0703C27.9531 20.0469 27.9844 20.0156 28.0156 20C28.0469 19.9766 28.0781 19.9609 28.1172 19.9453C28.1562 19.9297 28.1875 19.9219 28.2266 19.9141C28.3047 19.8984 28.3828 19.8984 28.4531 19.9141C28.4922 19.9219 28.5313 19.9375 28.5625 19.9453C28.6016 19.9609 28.6328 19.9766 28.6641 20C28.6953 20.0234 28.7266 20.0469 28.75 20.0703C28.7734 20.1016 28.8047 20.125 28.8203 20.1563C28.8438 20.1875 28.8594 20.2266 28.875 20.2578C28.8906 20.2891 28.8984 20.3281 28.9063 20.3672C28.9141 20.4063 28.9219 20.4453 28.9219 20.4844C28.9219 20.6406 28.8594 20.7891 28.75 20.8984C28.7266 20.9219 28.6953 20.9531 28.6641 20.9687C28.6328 20.9922 28.6016 21.0078 28.5625 21.0234C28.5234 21.0391 28.4922 21.0469 28.4531 21.0547C28.4141 21.0625 28.3828 21.0703 28.3437 21.0703Z" fill="black"/>
<path d="M25.3984 4.9375C25.3594 4.9375 25.3203 4.9375 25.2812 4.92969C25.2422 4.92188 25.2031 4.91406 25.1719 4.89844C25.1328 4.88281 25.1016 4.86719 25.0703 4.84375C25.0391 4.82031 25.0078 4.79688 24.9844 4.77344C24.9609 4.74219 24.9297 4.71875 24.9141 4.6875C24.8906 4.65625 24.875 4.625 24.8594 4.58594C24.8438 4.54688 24.8359 4.51562 24.8281 4.47656C24.8203 4.4375 24.8203 4.39844 24.8203 4.35938C24.8203 4.32031 24.8281 4.28125 24.8281 4.24219C24.8359 4.20312 24.8438 4.16406 24.8594 4.13281C24.875 4.10156 24.8906 4.0625 24.9141 4.03125C24.9375 4 24.9609 3.96875 24.9844 3.94531C25.0078 3.92188 25.0391 3.89062 25.0703 3.875C25.1016 3.85156 25.1328 3.83594 25.1719 3.82031C25.2031 3.80469 25.2422 3.79688 25.2812 3.78906C25.3594 3.77344 25.4375 3.77344 25.5078 3.78906C25.5469 3.79688 25.5859 3.80469 25.6172 3.82031C25.6562 3.83594 25.6875 3.85156 25.7188 3.875C25.75 3.89844 25.7812 3.92188 25.8047 3.94531C25.8281 3.97656 25.8594 4 25.875 4.03125C25.8984 4.0625 25.9141 4.10156 25.9297 4.13281C25.9453 4.17188 25.9531 4.20312 25.9609 4.24219C25.9687 4.28125 25.9687 4.32031 25.9687 4.35938C25.9687 4.39844 25.9687 4.4375 25.9609 4.47656C25.9531 4.51562 25.9453 4.55469 25.9297 4.58594C25.9141 4.625 25.8984 4.65625 25.875 4.6875C25.8516 4.71875 25.8281 4.75 25.8047 4.77344C25.7734 4.79688 25.75 4.82813 25.7188 4.84375C25.6875 4.85938 25.6562 4.88281 25.6172 4.89844C25.5781 4.91406 25.5469 4.92188 25.5078 4.92969C25.4766 4.9375 25.4375 4.9375 25.3984 4.9375Z" fill="black"/>
<path d="M25.3984 37.2031C25.3594 37.2031 25.3203 37.1953 25.2812 37.1875C25.2422 37.1797 25.2031 37.1719 25.1719 37.1563C25.1328 37.1406 25.1016 37.125 25.0703 37.1016C25.0391 37.0781 25.0078 37.0547 24.9844 37.0313C24.9609 37 24.9297 36.9766 24.9141 36.9453C24.8906 36.9141 24.875 36.8828 24.8594 36.8438C24.8438 36.8047 24.8359 36.7734 24.8281 36.7344C24.8203 36.6953 24.8125 36.6563 24.8125 36.6172C24.8125 36.5781 24.8125 36.5391 24.8281 36.5C24.8359 36.4609 24.8438 36.4219 24.8594 36.3906C24.875 36.3516 24.8906 36.3203 24.9141 36.2891C24.9375 36.2578 24.9609 36.2266 24.9844 36.2031C25.0078 36.1797 25.0391 36.1484 25.0703 36.1328C25.1016 36.1094 25.1328 36.0937 25.1719 36.0781C25.2031 36.0625 25.2422 36.0547 25.2812 36.0469C25.3594 36.0313 25.4375 36.0313 25.5078 36.0469C25.5469 36.0547 25.5859 36.0625 25.6172 36.0781C25.6562 36.0937 25.6875 36.1094 25.7188 36.1328C25.75 36.1563 25.7812 36.1797 25.8047 36.2031C25.8281 36.2344 25.8594 36.2578 25.875 36.2891C25.8984 36.3203 25.9141 36.3516 25.9297 36.3906C25.9453 36.4219 25.9531 36.4609 25.9609 36.5C25.9687 36.5391 25.9687 36.5781 25.9687 36.6172C25.9687 36.6563 25.9687 36.6953 25.9609 36.7344C25.9531 36.7734 25.9453 36.8047 25.9297 36.8438C25.9141 36.8828 25.8984 36.9141 25.875 36.9453C25.8516 36.9766 25.8281 37.0078 25.8047 37.0313C25.7734 37.0547 25.75 37.0859 25.7188 37.1016C25.6875 37.125 25.6562 37.1406 25.6172 37.1563C25.5781 37.1719 25.5469 37.1797 25.5078 37.1875C25.4766 37.2031 25.4375 37.2031 25.3984 37.2031Z" fill="black"/>
<path d="M7.20269 20.664C7.18707 20.664 7.17926 20.664 7.16363 20.664C6.84332 20.6484 6.59332 20.3672 6.61676 20.0468C6.61676 20.0078 6.67926 19.0703 7.20269 18.0234C7.68707 17.0468 8.68707 15.7812 10.6714 15.3047C10.9839 15.2265 11.3043 15.4218 11.3824 15.7343C11.4605 16.0468 11.2652 16.3672 10.9527 16.4453C8.02301 17.1562 7.80426 19.9922 7.79645 20.1172C7.7652 20.4218 7.50738 20.664 7.20269 20.664Z" fill="black"/>
<path d="M13.0867 10.7344C12.8445 10.7344 12.6179 10.5859 12.532 10.3437C12.4226 10.039 12.5867 9.70311 12.8914 9.59374C12.9773 9.56249 14.8758 8.85936 15.0554 7.02342C15.0867 6.70311 15.3679 6.46092 15.6961 6.49217C16.0164 6.52342 16.2586 6.80467 16.2273 7.1328C15.9851 9.72655 13.3992 10.664 13.2898 10.7031C13.2195 10.7265 13.1492 10.7344 13.0867 10.7344Z" fill="black"/>
<path d="M15.4692 32.664C15.3832 32.664 15.2973 32.6484 15.2192 32.6094C12.2114 31.1797 12.4926 27.8515 12.5004 27.7109C12.5317 27.3906 12.8129 27.1562 13.1411 27.1797C13.4614 27.2109 13.6957 27.4922 13.6723 27.8125C13.6645 27.9219 13.4692 30.4765 15.727 31.5469C16.0161 31.6875 16.1411 32.039 16.0004 32.3281C15.8989 32.539 15.6879 32.664 15.4692 32.664Z" fill="black"/>
<path d="M14.0852 22.8438C13.8665 22.8438 13.6555 22.7188 13.554 22.5078C13.4133 22.2188 13.5383 21.8672 13.8274 21.7266C14.9758 21.1797 14.8821 19.8594 14.8821 19.8047C14.8587 19.4844 15.093 19.2031 15.4133 19.1719C15.7337 19.1406 16.0149 19.375 16.0462 19.6953C16.054 19.7813 16.2258 21.8828 14.3274 22.7813C14.2493 22.8281 14.1712 22.8438 14.0852 22.8438Z" fill="black"/>
</g>
<defs>
<clipPath id="clip0_1384_18722">
<rect width="40" height="40" fill="white"/>
</clipPath>
</defs>
</svg>
