<svg width="40" height="40" viewBox="0 0 40 40" fill="none" xmlns="http://www.w3.org/2000/svg">
<path d="M28.1637 10.5273H26.3879C26.3819 17.2364 26.2546 34.503 26.3152 36.8727C26.3273 37.3152 26.3334 37.8424 26.0182 38.2121C25.8061 38.4546 25.2485 38.6121 24.897 38.6303L21.8607 38.6909C21.5091 38.6909 21.1576 38.6909 20.8364 38.6606C20.2061 38.6061 19.7213 38.194 19.6485 37.6546C19.6001 37.3152 19.6243 36.9455 19.6425 36.6243C19.7576 34.2 19.6849 17.6485 19.7213 10.5333H17.8425C17.1334 10.5333 16.6607 9.80607 16.9455 9.15758C18.0849 6.5697 20.7031 1.24243 23.0061 1.24243C25.3091 1.24243 27.9334 6.5697 29.0667 9.15758C29.3455 9.80001 28.8667 10.5273 28.1637 10.5273Z" fill="white"/>
<path d="M7.63645 38.2484C7.42433 38.4909 6.86675 38.6969 6.51524 38.709L3.47888 38.6181C3.13342 38.6181 2.77585 38.6181 2.45463 38.5878C1.83039 38.5333 1.34554 38.1212 1.26675 37.5818C1.21827 37.2424 1.24251 36.8727 1.26069 36.5515C1.40615 33.4484 1.24857 30.3454 1.40615 27.2484C1.44251 26.6 1.81221 26.2545 2.5213 26.0545C3.26675 25.8424 3.27888 25.9151 5.10312 25.9212C5.99403 25.9212 7.01827 25.9878 7.56372 26.6C7.94554 27.0303 7.97584 27.6121 7.99403 28.1515C8.06675 31.0727 7.85463 34.0424 7.93342 36.9636C7.94554 37.4 7.9516 37.8787 7.63645 38.2484Z" fill="#8D77E6"/>
<path d="M2.96393 27.2485C2.80635 30.3515 2.96393 33.4545 2.81847 36.5515C2.80029 36.8788 2.77605 37.2485 2.82453 37.5818C2.89726 38.1212 3.38211 38.5879 4.00635 38.6363L3.46696 38.6182C3.1215 38.6182 2.76393 38.6182 2.44877 38.5879C1.81847 38.5394 1.33968 38.1212 1.26089 37.5818C1.21241 37.2424 1.23665 36.8727 1.25483 36.5515C1.40029 33.4545 1.23665 30.3515 1.40029 27.2485C1.43665 26.5939 1.80635 26.2545 2.51544 26.0545C3.20635 25.8606 3.26696 25.9091 4.7518 25.9212C4.53362 25.9394 4.36392 25.9757 4.07302 26.0545C3.36999 26.2545 3.00029 26.5939 2.96393 27.2485Z" fill="white"/>
<path d="M16.824 38.3091C16.6118 38.5576 16.0543 38.7273 15.7027 38.7454L12.6664 38.7576C12.3209 38.7636 11.9633 38.7636 11.6421 38.7394C11.0179 38.697 10.533 38.2909 10.4543 37.7515C10.4058 37.4121 10.43 37.0424 10.4482 36.7212C10.5936 33.6182 10.4361 23.0364 10.5936 19.9333C10.63 19.2788 10.9997 18.9333 11.7088 18.7212C12.4543 18.497 12.4664 18.5697 14.2906 18.5454C15.1815 18.5333 16.2058 18.5818 16.7512 19.1757C17.133 19.6 17.1633 20.1818 17.1815 20.7212C17.2543 23.6424 17.0421 34.0485 17.1209 36.9697C17.133 37.4061 17.1391 37.9333 16.824 38.3091Z" fill="#FFAD00"/>
<path d="M13.1997 38.7393C13.2967 38.7454 13.3997 38.7515 13.5027 38.7515H12.6603C12.3149 38.7575 11.9573 38.7575 11.6421 38.7333C11.0118 38.6909 10.533 38.2848 10.4543 37.7454C10.4058 37.406 10.43 37.0363 10.4482 36.7151C10.5936 33.6121 10.43 23.0303 10.5936 19.9272C10.63 19.2727 10.9936 18.9272 11.7088 18.7151C12.4543 18.4909 12.4664 18.5636 14.2906 18.5393C14.5209 18.5393 14.7573 18.5393 14.9876 18.5454C13.9936 18.5212 13.8664 18.5333 13.2664 18.7151C12.5573 18.9272 12.1876 19.2787 12.1512 19.9272C11.9936 23.0303 12.1512 33.6121 12.0058 36.7151C11.9876 37.0424 11.9633 37.4121 12.0118 37.7454C12.0906 38.2909 12.5755 38.6969 13.1997 38.7393Z" fill="white"/>
<path d="M35.2007 38.0424C34.9885 38.2848 34.431 38.4485 34.0794 38.4606L31.0007 38.5273C30.6552 38.5273 30.2976 38.5273 29.9764 38.4969C29.3522 38.4424 28.9037 37.9697 28.831 37.4303C28.7825 37.0909 28.8067 36.7212 28.8249 36.4C28.9704 33.2969 28.8128 28.3576 28.9704 25.2606C29.0067 24.6121 29.3764 24.2666 30.0855 24.0666C30.831 23.8545 30.8431 23.9273 32.6673 23.9333C33.5582 23.9333 34.5825 24 35.1279 24.6121C35.5098 25.0424 35.5401 25.6242 35.5582 26.1636C35.631 29.0848 35.4188 33.7939 35.4976 36.7151C35.5098 37.1454 35.5158 37.6727 35.2007 38.0424Z" fill="#8D77E6"/>
<path d="M31.5401 38.4909C31.6067 38.4969 31.6794 38.503 31.7522 38.503L31.0007 38.5212C30.6491 38.5212 30.2976 38.5212 29.9764 38.4909C29.3461 38.4363 28.9037 37.9636 28.831 37.4242C28.7825 37.0848 28.8067 36.7151 28.8249 36.3939C28.9704 33.2909 28.8067 28.3576 28.9704 25.2545C29.0067 24.6 29.3764 24.2606 30.0855 24.0606C30.7764 23.8666 30.837 23.9151 32.3219 23.9273C32.1037 23.9454 31.934 23.9818 31.6431 24.0606C30.934 24.2666 30.5643 24.606 30.5279 25.2545C30.3704 28.3576 30.5279 33.2909 30.3825 36.3939C30.3643 36.7212 30.3401 37.0848 30.3885 37.4242C30.4673 37.9636 30.9098 38.4363 31.5401 38.4909Z" fill="white"/>
<path d="M6.52188 39.006L3.46733 38.9151C3.134 38.9212 2.7643 38.9151 2.43097 38.8848C1.67339 38.8242 1.07339 38.303 0.976424 37.6242C0.927939 37.2848 0.946121 36.9273 0.964303 36.6121L0.970363 36.5333C1.04309 35.0303 1.03703 33.4909 1.03703 32.006C1.03703 30.4424 1.03097 28.8242 1.11582 27.2303C1.17036 26.2424 1.89764 25.9212 2.44309 25.7697C3.04309 25.6 3.21885 25.606 4.05521 25.6182C4.32188 25.6242 4.66127 25.6303 5.10976 25.6303C6.14006 25.6303 7.18249 25.7273 7.78855 26.406C8.26127 26.9333 8.27945 27.6363 8.29158 28.1454C8.32794 29.606 8.29764 31.103 8.26127 32.5454C8.23097 33.9939 8.19461 35.4969 8.23097 36.9576C8.24309 37.3939 8.25521 37.9879 7.86127 38.4485C7.58248 38.7576 6.94612 38.9879 6.52188 39.006ZM3.57036 26.1939C3.15218 26.1939 3.00067 26.2182 2.60067 26.3333C1.88551 26.5394 1.72188 26.8545 1.69764 27.2606C1.61885 28.8363 1.61885 30.4485 1.61885 32.006C1.61885 33.497 1.62491 35.0424 1.55218 36.5636L1.54612 36.6424C1.52794 36.9273 1.50976 37.2545 1.55218 37.5394C1.60673 37.9454 1.98855 38.2545 2.47339 38.2969C2.78248 38.3212 3.134 38.3273 3.47339 38.3273L6.51582 38.4182C6.79461 38.406 7.26733 38.2242 7.40673 38.0545C7.63703 37.7879 7.64915 37.4182 7.63703 36.9636C7.60067 35.4909 7.63097 33.9818 7.66733 32.5273C7.69764 31.0909 7.734 29.606 7.69764 28.1576C7.68551 27.6121 7.64309 27.1333 7.34006 26.7939C6.88551 26.2909 5.99461 26.2182 5.09764 26.2182C4.64915 26.2182 4.3037 26.2121 4.03703 26.206C3.84915 26.2 3.69764 26.1939 3.57036 26.1939Z" fill="black"/>
<path d="M12.3154 39.0545C12.0488 39.0545 11.8185 39.0484 11.6185 39.0363C10.8548 38.9878 10.2548 38.4787 10.1639 37.7999C10.1154 37.4606 10.1336 37.109 10.1518 36.7939L10.1579 36.7151C10.2306 35.206 10.2245 31.8363 10.2245 28.5757C10.2245 25.109 10.2185 21.5212 10.3033 19.9272C10.3579 18.9454 11.0851 18.6121 11.6245 18.4484C12.2245 18.2666 12.4003 18.2666 13.2367 18.2666C13.5033 18.2666 13.8427 18.2666 14.2912 18.2606C15.3276 18.2484 16.3639 18.3212 16.97 18.9878C17.4427 19.509 17.4609 20.2121 17.4791 20.7212C17.5154 22.1757 17.4851 25.5333 17.4488 28.7818C17.4124 32.0848 17.3821 35.503 17.4185 36.9696C17.4306 37.3939 17.4488 38.0424 17.0488 38.509C16.7579 38.8484 16.0973 39.0303 15.7154 39.0484L12.667 39.0606C12.5397 39.0545 12.4245 39.0545 12.3154 39.0545ZM14.5094 18.8303C14.4367 18.8303 14.37 18.8303 14.2973 18.8303C13.8488 18.8363 13.5033 18.8363 13.2367 18.8363C12.4185 18.8363 12.3154 18.8363 11.7942 18.9939C11.073 19.2121 10.9094 19.5333 10.8851 19.9454C10.8063 21.5272 10.8063 25.103 10.8063 28.5636C10.8063 31.9818 10.8124 35.2121 10.7397 36.7333L10.7336 36.8181C10.7154 37.103 10.6973 37.4303 10.7397 37.709C10.7942 38.109 11.17 38.4121 11.6548 38.4484C11.9215 38.4666 12.2367 38.4727 12.6548 38.4666L15.6912 38.4545C16.0124 38.4363 16.4609 38.2727 16.5942 38.1212C16.8245 37.8484 16.8367 37.4424 16.8245 36.9757C16.7821 35.4969 16.8185 32.0787 16.8548 28.7696C16.8851 25.5272 16.9215 22.1757 16.8851 20.7333C16.873 20.1878 16.8306 19.709 16.5336 19.3757C16.1215 18.9151 15.3336 18.8303 14.5094 18.8303Z" fill="black"/>
<path d="M30.9954 38.8182C30.65 38.8182 30.2863 38.8182 29.953 38.7879C29.2257 38.7272 28.6439 38.1818 28.5409 37.4666C28.4924 37.1272 28.5106 36.7697 28.5288 36.4545L28.5348 36.3818C28.6075 34.8788 28.6015 32.8909 28.6015 30.9697C28.6015 28.9394 28.5954 26.8363 28.6803 25.2424C28.7348 24.2545 29.4621 23.9333 30.0075 23.7818C30.6075 23.6121 30.7833 23.6182 31.6197 23.6303C31.8863 23.6363 32.2257 23.6424 32.6742 23.6424C33.7045 23.6424 34.7469 23.7394 35.3469 24.4182C35.8197 24.9454 35.8378 25.6485 35.85 26.1575C35.8863 27.6182 35.856 29.5454 35.8197 31.4121C35.7894 33.2969 35.753 35.2485 35.7894 36.7091C35.8015 37.1394 35.8197 37.7818 35.4197 38.2424C35.1288 38.5757 34.4621 38.7454 34.0863 38.7575L31.0075 38.8242C31.0015 38.8182 30.9954 38.8182 30.9954 38.8182ZM31.1348 24.2C30.7166 24.2 30.5651 24.2242 30.1651 24.3394C29.45 24.5454 29.2863 24.8606 29.2621 25.2666C29.1833 26.8424 29.1833 28.9394 29.1833 30.9636C29.1833 32.8909 29.1894 34.8848 29.1166 36.406L29.1106 36.4848C29.0924 36.7757 29.0742 37.0969 29.1166 37.3818C29.1772 37.8242 29.5409 38.1636 29.9954 38.2C30.3045 38.2242 30.656 38.2303 30.9954 38.2303L34.0681 38.1636C34.3954 38.1515 34.85 37.9939 34.9772 37.8485C35.2075 37.5818 35.2136 37.1757 35.2075 36.7091C35.1651 35.2363 35.2015 33.2788 35.2378 31.3879C35.2681 29.5272 35.3045 27.606 35.2681 26.1636C35.256 25.6182 35.2136 25.1394 34.9106 24.8C34.4621 24.2969 33.5651 24.2242 32.6682 24.2242C32.2197 24.2242 31.8742 24.2182 31.6075 24.2121C31.4136 24.206 31.2621 24.2 31.1348 24.2Z" fill="black"/>
<path d="M21.8484 38.9818C21.5029 38.9818 21.1393 38.9818 20.8059 38.9515C20.0423 38.8848 19.4484 38.3697 19.3514 37.6909C19.3029 37.3576 19.3211 37.006 19.3393 36.6969L19.3453 36.6C19.412 35.103 19.412 28.1272 19.412 21.3818C19.412 17.3333 19.412 13.503 19.4241 10.8182H17.8362C17.4059 10.8182 17.0059 10.6 16.7696 10.2424C16.5332 9.88483 16.4968 9.43028 16.6726 9.03634C17.9999 6.0121 20.5877 0.945435 22.9999 0.945435C25.4181 0.945435 27.9999 6.0121 29.3271 9.03634C29.5029 9.43028 29.4665 9.87877 29.2302 10.2424C28.9938 10.606 28.5938 10.8242 28.1574 10.8242H26.6726C26.6665 13.2545 26.6484 16.9151 26.6302 20.7394C26.5999 27.5939 26.5574 35.3576 26.5999 36.8666C26.612 37.2909 26.6302 37.9394 26.2302 38.406C25.9271 38.7576 25.2484 38.9091 24.8968 38.9212L21.8544 38.9818H21.8484ZM22.9999 1.53331C21.5029 1.53331 19.3393 4.42422 17.2059 9.27271C17.109 9.49089 17.1332 9.72725 17.2605 9.92119C17.3877 10.1212 17.5999 10.2303 17.8362 10.2303H19.715C19.7938 10.2303 19.8665 10.2606 19.9211 10.3151C19.9756 10.3697 20.0059 10.4424 20.0059 10.5212C19.9877 13.2121 19.9938 17.1757 19.9938 21.3757C19.9938 28.1273 19.9938 35.1091 19.9271 36.6242L19.9211 36.7212C19.9029 37.0182 19.8908 37.3212 19.9271 37.6C19.9817 38.006 20.3635 38.3151 20.8484 38.3576C21.1635 38.3818 21.515 38.3879 21.8484 38.3879L24.8847 38.3273C25.212 38.3151 25.6665 38.1576 25.7938 38.0121C26.0241 37.7454 26.0362 37.3212 26.0181 36.8727C25.9756 35.3576 26.012 27.9151 26.0484 20.7273C26.0665 16.7454 26.0847 12.9454 26.0908 10.5212C26.0908 10.3576 26.2241 10.2303 26.3817 10.2303H28.1574C28.3938 10.2303 28.6059 10.1151 28.7332 9.91513C28.8605 9.72119 28.8787 9.47877 28.7877 9.26665C26.6665 4.42422 24.4968 1.53331 22.9999 1.53331Z" fill="black"/>
<path d="M33.9396 35.9576C33.7699 35.9515 33.6426 35.8182 33.6486 35.6606C33.6547 35.3939 33.6608 35.1333 33.6608 34.8667C33.6608 34.703 33.7941 34.5697 33.9577 34.5758C34.1214 34.5758 34.2486 34.7091 34.2486 34.8727C34.2426 35.1394 34.2426 35.4061 34.2365 35.6667C34.2305 35.8303 34.0971 35.9576 33.9396 35.9576Z" fill="black"/>
<path d="M33.9701 33.8909C33.8064 33.8909 33.6731 33.7575 33.6791 33.5939C33.6913 31.9636 33.6791 30.3212 33.6428 28.6969C33.6367 28.5333 33.7701 28.4 33.9276 28.4H33.9337C34.0913 28.4 34.2246 28.5272 34.2246 28.6848C34.261 30.3091 34.2731 31.9636 34.261 33.6C34.261 33.7636 34.1276 33.8909 33.9701 33.8909Z" fill="black"/>
<path d="M36.1815 23.1636C31.9027 25.7818 25.424 20.6787 24.5088 20.1212C24.1027 19.8787 23.8543 19.4424 23.8421 18.9697C23.83 18.406 24.1452 17.8727 24.6724 17.6666C24.6785 17.6606 24.6846 17.6606 24.6967 17.6545C25.0664 17.5151 25.3815 17.6 25.7452 17.7454C26.0179 17.8545 28.4906 19.2121 28.927 19.5454C27.1755 17.0666 25.2906 14.2606 24.2118 11.4242C24.0421 10.9818 23.8906 10.5272 23.8846 10.0606C23.8846 9.5939 24.0482 9.09693 24.4179 8.80602C25.327 8.12723 26.5088 9.70299 27.9088 13.0666C28.2482 11.8363 29.4058 11.206 30.327 12.6484C30.4543 11.1333 31.6603 10.406 32.6421 12.0242C33.0724 10.3697 34.1149 10.5939 35.624 12.2606C36.4664 13.1818 37.1512 14.2363 37.6603 15.3757C39.1512 18.7151 38.5512 21.2666 36.1815 23.1636Z" fill="#FFAD00"/>
<path d="M33.3755 24.206C29.927 24.206 26.2361 21.6666 24.7997 20.6787C24.5937 20.5394 24.4422 20.4363 24.3513 20.3757C23.8603 20.0787 23.5573 19.5575 23.5452 18.9818C23.5331 18.2848 23.9331 17.6545 24.5452 17.4H24.5513L24.5876 17.3818C25.0725 17.2 25.4967 17.3333 25.8482 17.4787C26.0482 17.5575 27.0361 18.0909 27.8846 18.5757C26.3209 16.309 24.8422 13.9212 23.927 11.5333C23.7634 11.103 23.5876 10.6 23.5816 10.0666C23.5755 9.46056 23.8179 8.90299 24.224 8.58178C24.4967 8.37572 24.8058 8.31511 25.1149 8.40602C25.9391 8.63026 26.824 9.88481 27.8967 12.3333C28.1634 11.8969 28.5391 11.6121 28.9634 11.5515C29.224 11.509 29.6725 11.5394 30.1452 11.9878C30.3391 11.3878 30.7149 10.9636 31.1876 10.8545C31.4725 10.7878 31.9937 10.7939 32.5391 11.4121C32.7391 10.9818 33.0119 10.7272 33.3573 10.6424C34.0119 10.4787 34.7937 10.9333 35.83 12.0727C36.6906 13.0181 37.3937 14.0969 37.9209 15.2666C39.43 18.6242 38.9088 21.3575 36.3634 23.3939C36.3513 23.4 36.3452 23.406 36.3331 23.4121C35.4119 23.9757 34.4058 24.206 33.3755 24.206ZM24.8058 17.9272C24.7937 17.9333 24.7876 17.9394 24.7755 17.9394C24.3816 18.0969 24.1209 18.5091 24.1331 18.9636C24.1452 19.3394 24.3391 19.6787 24.6543 19.8727C24.7513 19.9333 24.9149 20.0424 25.1331 20.1939C26.9149 21.4181 32.3391 25.1515 36.0058 22.9212C38.3331 21.0484 38.7876 18.6181 37.3816 15.503C36.8846 14.3878 36.2119 13.3636 35.3937 12.4606C34.2785 11.2363 33.727 11.1454 33.4967 11.206C33.1876 11.2848 33.0058 11.7394 32.9088 12.109C32.8785 12.2242 32.7816 12.309 32.6664 12.3272C32.5513 12.3454 32.4361 12.2909 32.3755 12.1878C32.0361 11.6242 31.6482 11.3515 31.3209 11.4242C30.9513 11.509 30.6603 12.0181 30.6058 12.6787C30.5937 12.806 30.5028 12.909 30.3816 12.9394C30.2603 12.9697 30.1331 12.9212 30.0664 12.8121C29.7513 12.3151 29.3876 12.0727 29.0543 12.1272C28.6785 12.1818 28.3331 12.5878 28.1816 13.1515C28.1452 13.2727 28.0422 13.3575 27.9149 13.3636C27.7937 13.3697 27.6725 13.2969 27.624 13.1818C26.2725 9.92723 25.43 9.09087 24.9573 8.96359C24.8179 8.92723 24.7028 8.95147 24.5755 9.04238C24.3149 9.24844 24.1634 9.6242 24.1634 10.0545C24.1694 10.4909 24.327 10.9333 24.4664 11.3212C25.5088 14.0545 27.3331 16.806 29.1513 19.3757C29.2361 19.4909 29.2179 19.6545 29.1149 19.7575C29.0119 19.8606 28.8482 19.8666 28.7331 19.7818C28.2967 19.4545 25.8422 18.1151 25.6179 18.0242C25.2906 17.8848 25.0725 17.8363 24.8058 17.9272Z" fill="black"/>
<path d="M29.2838 16.3939C29.1747 16.3939 29.0656 16.3333 29.0171 16.2242L27.6353 13.2C27.5686 13.0545 27.6353 12.8787 27.7808 12.8121C27.9262 12.7454 28.102 12.8121 28.1686 12.9575L29.5505 15.9818C29.6171 16.1272 29.5505 16.303 29.405 16.3696C29.3686 16.3818 29.3262 16.3939 29.2838 16.3939Z" fill="black"/>
<path d="M31.6846 15.303C31.5816 15.303 31.4846 15.2484 31.43 15.1575L30.0664 12.8C29.9876 12.6606 30.03 12.4787 30.1755 12.4C30.3149 12.3212 30.4967 12.3636 30.5755 12.509L31.9391 14.8666C32.0179 15.006 31.9755 15.1878 31.83 15.2666C31.7876 15.2909 31.7331 15.303 31.6846 15.303Z" fill="black"/>
<path d="M33.97 14.3939C33.873 14.3939 33.7821 14.3454 33.7215 14.2606L32.3882 12.1939C32.2973 12.0606 32.3397 11.8788 32.473 11.7878C32.6063 11.703 32.7882 11.7394 32.8791 11.8727L34.2124 13.9394C34.3033 14.0727 34.2609 14.2545 34.1276 14.3454C34.0791 14.3818 34.0245 14.3939 33.97 14.3939Z" fill="black"/>
<path d="M36.4558 6.82418C36.4134 6.82418 36.3709 6.81812 36.3285 6.79388C36.1831 6.72721 36.1225 6.55146 36.1891 6.406C36.2376 6.29691 36.2921 6.18782 36.3406 6.07873C36.4073 5.93327 36.5831 5.86661 36.7285 5.93327C36.874 5.99994 36.9406 6.1757 36.874 6.32115C36.8255 6.43024 36.7709 6.53933 36.7225 6.65449C36.6679 6.76358 36.5649 6.82418 36.4558 6.82418Z" fill="black"/>
<path d="M34.88 9.75756C34.8254 9.75756 34.777 9.74544 34.7285 9.71513C34.5891 9.63028 34.5467 9.44847 34.6315 9.31513C35.0558 8.60604 35.4618 7.87271 35.8315 7.13937C35.9042 6.99392 36.08 6.93331 36.2254 7.0121C36.3709 7.08483 36.4254 7.26059 36.3527 7.40604C35.977 8.15756 35.5648 8.90301 35.1285 9.62422C35.08 9.70907 34.983 9.75756 34.88 9.75756Z" fill="black"/>
<path d="M33.0975 8.9939C33.0854 8.9939 33.0793 8.9939 33.0672 8.9939C32.9035 8.97572 32.7884 8.83632 32.8066 8.67269C32.8854 7.84844 32.9399 7.01208 32.9581 6.18784C32.9642 6.0242 33.0914 5.89087 33.2551 5.90299C33.4187 5.90905 33.546 6.04238 33.5399 6.19996C33.5217 7.04238 33.4672 7.89087 33.3884 8.72723C33.3763 8.87875 33.249 8.9939 33.0975 8.9939Z" fill="black"/>
<path d="M36.7815 10.9333C36.6906 10.9333 36.5997 10.8909 36.5451 10.8121C36.4481 10.6787 36.4784 10.4969 36.6118 10.4C37.2784 9.91511 37.9391 9.39996 38.5694 8.86662C38.6966 8.76359 38.8784 8.77571 38.9815 8.90299C39.0845 9.0242 39.0724 9.21208 38.9451 9.31511C38.3027 9.8545 37.63 10.3818 36.9512 10.8727C36.9027 10.9151 36.8421 10.9333 36.7815 10.9333Z" fill="black"/>
<path d="M36.346 20.8666C36.3218 20.8666 36.2915 20.8605 36.2673 20.8545C36.1097 20.8121 36.0188 20.6484 36.0612 20.4908C36.3582 19.4424 36.3642 18.3939 36.0854 17.3696C36.043 17.2121 36.1339 17.0545 36.2915 17.0121C36.4491 16.9696 36.6066 17.0605 36.6491 17.2181C36.9521 18.3454 36.946 19.4969 36.6248 20.6484C36.5885 20.7818 36.4733 20.8666 36.346 20.8666Z" fill="white"/>
<path d="M35.5996 15.8363C35.5026 15.8363 35.4057 15.7878 35.3511 15.703C35.1451 15.3878 34.9875 15.2121 34.9875 15.206C34.8784 15.0848 34.8905 14.903 35.0057 14.7939C35.1269 14.6848 35.3087 14.6969 35.4178 14.8121C35.4239 14.8181 35.6057 15.0242 35.842 15.3878C35.9269 15.5212 35.8905 15.703 35.7511 15.7939C35.7026 15.8242 35.6481 15.8363 35.5996 15.8363Z" fill="white"/>
</svg>
