<svg width="213" height="213" viewBox="0 0 213 213" fill="none" xmlns="http://www.w3.org/2000/svg">
<mask id="mask0_1_29" style="mask-type:luminance" maskUnits="userSpaceOnUse" x="0" y="-1" width="213" height="214">
<path d="M0 -0.000137329H212.999V212.999H0V-0.000137329Z" fill="white"/>
</mask>
<g mask="url(#mask0_1_29)">
<path d="M187.791 78.6682C188.495 75.2044 187.115 71.3929 184.356 69.1834C182.641 67.8102 180.439 67.0926 178.243 67.0926C176.906 67.0926 175.571 67.3588 174.35 67.9054C173.918 68.0989 173.5 68.3244 173.097 68.5428C172.466 68.8831 171.87 69.2047 171.228 69.4127C168.286 70.3653 165.457 68.7986 162.464 67.1396C161.125 66.3966 159.74 65.629 158.336 65.1011C155.79 64.1438 153.048 63.9774 150.397 63.8169C148.443 63.6987 146.423 63.5764 144.517 63.135C141.685 62.4794 138.964 60.5141 137.746 58.2448C136.975 56.8095 136.84 55.3243 137.355 53.9507C137.702 53.0229 138.312 52.2296 138.957 51.3897C139.525 50.6504 140.113 49.8858 140.518 49.0097C141.409 47.0819 141.289 44.9548 141.173 42.8976C141.096 41.5505 141.017 40.1577 141.23 38.8548C141.572 36.7643 142.678 34.8115 143.747 32.9232C145.054 30.6156 146.405 28.2302 146.432 25.5198C146.447 24.1091 146.093 22.7433 145.75 21.4229C145.587 20.791 145.418 20.1374 145.295 19.4963C144.785 16.8476 145.039 14.0574 146.029 11.3995L146.268 11.0288C136.382 6.9194 125.987 4.41541 115.481 3.50726C114.447 6.45014 111.514 9.5482 110.313 12.3979C109.741 13.7566 109.597 15.2592 109.093 16.6446C108.588 18.0295 107.554 19.3882 106.094 19.5966C105.647 19.6607 105.175 19.6141 104.759 19.7921C103.622 20.2793 103.725 21.9017 103.202 23.0237C102.653 24.2031 101.309 24.8467 100.011 24.9283C98.7121 25.0098 97.4346 24.6279 96.1898 24.2497C94.5836 23.7617 92.8576 23.1906 91.8907 21.8177C91.3607 21.0651 91.1203 20.1462 90.6481 19.3561C89.8111 17.9563 88.3397 17.0889 87.0234 16.1258C84.0626 13.9592 81.6801 10.1373 80.1042 6.5504C73.9489 8.17144 67.957 10.3596 62.2056 13.0868L62.4461 13.4463C62.5089 14.125 62.7084 14.7841 63.0326 15.3838C63.3567 15.9835 63.7988 16.5114 64.3323 16.9358L71.9125 22.9996C72.4068 23.3933 72.8057 23.8937 73.0794 24.4633C73.3531 25.0329 73.4945 25.6571 73.4929 26.289V34.903C73.4929 37.7078 75.7752 39.9896 78.58 39.9896H82.1223C84.4449 39.9896 86.3345 41.8792 86.3345 44.2018V48.2804C86.3345 49.6087 85.6971 50.8738 84.6296 51.6651L63.8335 67.0697C63.1071 67.6053 62.2287 67.8952 61.3262 67.8971H48.4693C45.6645 67.8971 43.3826 70.179 43.3826 72.9837V81.4642C43.3809 82.1324 43.5116 82.7944 43.7673 83.4118C44.023 84.0292 44.3986 84.5898 44.8724 85.0611L53.8833 94.0715C54.3545 94.5454 54.915 94.9212 55.5324 95.177C56.1498 95.4327 56.8118 95.5635 57.4801 95.5617H70.1669C72.4895 95.5617 74.379 97.4508 74.379 99.7734V103.537C74.379 106.342 76.6609 108.624 79.4656 108.624H88.3213C90.644 108.624 92.5335 110.514 92.5335 112.836C92.5335 115.641 94.8157 117.923 97.6205 117.923H109.133C111.456 117.923 113.345 119.812 113.345 122.135V134.306C113.345 135.584 112.775 136.778 111.782 137.582L94.4222 151.617C93.8312 152.093 93.3547 152.695 93.0278 153.38C92.7009 154.064 92.532 154.814 92.5335 155.573V161.52C92.5335 162.681 92.0472 163.803 91.1993 164.596L84.6804 170.696C84.1726 171.172 83.7677 171.747 83.4906 172.386C83.2134 173.025 83.0699 173.714 83.0687 174.41V187.67C83.0687 189.992 81.1792 191.882 78.8566 191.882H71.9379C69.6157 191.882 67.7261 189.992 67.7261 187.67V179.211C67.725 178.447 67.5529 177.693 67.2223 177.004L62.3866 166.96C62.1129 166.39 61.9704 165.766 61.9697 165.133V145.993C61.9697 144.361 61.1793 142.818 59.8551 141.864L41.5805 128.707C41.0391 128.316 40.598 127.802 40.2936 127.208C39.9891 126.614 39.8299 125.956 39.829 125.288V112.05C39.829 111.335 40.0129 110.627 40.3607 110.002L41.3255 108.27C42.4296 106.285 42.0751 103.783 40.4626 102.183L24.4149 86.27C23.62 85.4772 23.1719 84.4015 23.1689 83.2788V73.1464C23.1682 72.4416 23.0213 71.7446 22.7377 71.0994C22.4541 70.4542 22.0399 69.8748 21.5211 69.3977L13.6185 62.1478L13.2682 61.8687C-5.12213 100.307 1.59774 147.754 33.442 179.599C73.8158 219.972 139.274 219.972 179.647 179.599C182.322 176.922 184.849 174.102 187.218 171.151H186.664C183.432 168.826 180.98 166.736 178.969 164.594C173.932 159.228 170.577 152.261 169.522 144.977C169.338 143.703 169.218 142.392 169.103 141.123C168.901 138.914 168.693 136.63 168.135 134.429C167.37 131.412 165.954 128.567 164.585 125.815C162.755 122.139 161.027 118.666 160.665 114.762C160.149 109.179 162.796 103.512 167.409 100.325C170.116 98.4546 173.375 97.4649 176.527 96.5081C179.499 95.6053 182.573 94.6718 185.254 92.9986C185.935 92.5739 186.677 92.028 187.02 91.201C187.504 90.0374 187.049 88.8921 186.611 87.7843C186.425 87.315 186.249 86.872 186.143 86.431C185.746 84.7915 186.331 83.1557 186.95 81.4234C187.27 80.5298 187.6 79.605 187.791 78.6682Z" fill="#23A8FE"/>
<path d="M71.9379 191.882C69.6153 191.882 67.7257 189.993 67.7257 187.67V187.039C64.837 184.708 62.0744 182.225 59.45 179.6C35.5653 155.715 25.8144 123.052 30.1892 91.9964L24.4149 86.2704C23.62 85.4776 23.172 84.402 23.1689 83.2793V73.1464C23.1689 71.7249 22.5682 70.3591 21.5211 69.3981L13.6181 62.1483L13.2682 61.8691C-5.12213 100.307 1.59775 147.755 33.442 179.6C56.9435 203.101 88.9433 212.916 119.549 209.058C103.6 207.047 88.0322 201.321 74.2418 191.882H71.9379Z" fill="#0193FA"/>
<path d="M80.1077 6.55829C73.9944 8.16952 67.998 10.3399 62.2058 13.0872L62.4459 13.4467C62.5089 14.1254 62.7085 14.7845 63.0328 15.3841C63.357 15.9838 63.7991 16.5117 64.3325 16.9362L71.7529 22.8727C76.0293 19.7595 80.5399 16.9815 85.2443 14.5632C83.1035 12.3696 81.3537 9.3926 80.1077 6.55829Z" fill="#0193FA"/>
<path d="M109.133 117.486H97.6203C95.0522 117.486 92.9705 115.404 92.9705 112.837C92.9705 110.269 90.8891 108.187 88.3215 108.187H79.4654C76.8973 108.187 74.816 106.106 74.816 103.538V99.7738C74.816 97.2062 72.7343 95.1244 70.1666 95.1244H57.4799C56.8693 95.1245 56.2647 95.0043 55.7006 94.7706C55.1364 94.537 54.6239 94.1945 54.1921 93.7628L45.1812 84.7519C44.3094 83.8801 43.8196 82.6976 43.8196 81.4646V72.9842C43.8196 70.4165 45.9014 68.3348 48.469 68.3348H61.3259C62.3223 68.3348 63.2924 68.0149 64.0932 67.4216L84.8898 52.017C85.4735 51.5845 85.9477 51.0213 86.2745 50.3724C86.6012 49.7236 86.7714 49.0073 86.7714 48.2808V44.2022C86.7714 41.6341 84.6897 39.5528 82.1221 39.5528H78.5797C76.0121 39.5528 73.9303 37.4711 73.9303 34.9034V26.289C73.9302 25.5918 73.7734 24.9035 73.4714 24.2751C73.1693 23.6466 72.7299 23.0941 72.1856 22.6585L64.6054 16.5946C64.0608 16.1591 63.6211 15.6066 63.319 14.978C63.0169 14.3495 62.8601 13.661 62.8602 12.9637V12.7686C52.2102 17.7308 42.2313 24.605 33.4417 33.3946C24.8069 42.0294 18.0259 51.8136 13.0845 62.2518L21.2246 69.7205C21.6994 70.156 22.0786 70.6854 22.3379 71.2751C22.5972 71.8649 22.7311 72.5021 22.731 73.1464V83.2793C22.731 84.5194 23.2265 85.708 24.1068 86.5808L40.1541 102.495C40.8743 103.209 41.3412 104.139 41.4836 105.143C41.626 106.147 41.4361 107.171 40.9429 108.057L39.9786 109.79C39.5937 110.481 39.3916 111.259 39.3916 112.051V125.289C39.3916 126.784 40.1108 128.188 41.3244 129.062L59.599 142.22C60.1972 142.65 60.6844 143.217 61.0205 143.873C61.3566 144.529 61.5318 145.256 61.5318 145.993V165.133C61.5318 165.831 61.6891 166.521 61.992 167.15L66.8281 177.194C67.131 177.823 67.2883 178.513 67.2882 179.211V187.67C67.2882 190.238 69.3696 192.32 71.9376 192.32H78.8563C81.4244 192.32 83.5057 190.238 83.5057 187.67V174.411C83.5057 173.124 84.0391 171.894 84.9784 171.015L91.4978 164.915C91.9626 164.481 92.3332 163.955 92.5865 163.371C92.8399 162.787 92.9705 162.157 92.9705 161.52V155.573C92.9705 154.169 93.6053 152.84 94.6969 151.957L112.056 137.922C112.595 137.486 113.03 136.936 113.329 136.31C113.627 135.684 113.782 135 113.782 134.307V122.135C113.782 119.567 111.701 117.486 109.133 117.486Z" fill="#43CB8E"/>
<path d="M62.8602 12.9637V12.7735C40.4558 23.2084 22.6949 41.5522 13.0845 62.2522L21.2251 69.7205C21.6998 70.156 22.0788 70.6855 22.3381 71.2752C22.5973 71.865 22.7311 72.5022 22.7311 73.1464V83.2793C22.7311 84.519 23.2261 85.7075 24.1068 86.5807L30.117 92.541C33.0482 70.9074 42.8212 50.0231 59.4498 33.3941C63.3781 29.4653 67.6152 25.8578 72.1203 22.6065L64.605 16.5946C64.0606 16.159 63.6211 15.6064 63.319 14.9779C63.017 14.3494 62.8602 13.661 62.8602 12.9637Z" fill="#00BA66"/>
<path d="M209.927 106.497C209.927 80.0389 199.834 53.5813 179.647 33.3946C169.645 23.3924 158.102 15.8716 145.783 10.8254C144.669 13.5877 144.301 16.6513 144.865 19.5792C145.246 21.5627 146.016 23.4959 145.995 25.5157C145.946 30.3094 141.572 34.0535 140.799 38.7849C140.253 42.1234 141.541 45.756 140.121 48.8266C139.293 50.6172 137.637 51.9505 136.945 53.798C135.315 58.1508 139.89 62.5131 144.418 63.5614C148.946 64.6098 153.832 63.8751 158.182 65.5109C162.629 67.1837 166.842 71.2922 171.362 69.8291C172.478 69.468 173.458 68.7845 174.529 68.3053C177.611 66.9245 181.447 67.4146 184.083 69.5254C186.719 71.6363 188.035 75.2723 187.362 78.5812C186.815 81.2683 185.073 83.8688 185.718 86.5342C186.086 88.0568 187.217 89.5869 186.616 91.0334C186.323 91.7389 185.671 92.2232 185.022 92.628C179.542 96.0488 172.477 96.293 167.161 99.9648C162.453 103.218 159.703 109.105 160.23 114.803C160.882 121.841 165.974 127.686 167.711 134.537C168.579 137.963 168.583 141.542 169.089 145.04C170.158 152.423 173.544 159.454 178.65 164.894C181.076 167.479 183.852 169.686 186.744 171.747C202.196 152.797 209.914 129.647 209.914 106.497H209.927Z" fill="#43CB8E"/>
<path d="M171.362 69.8291C172.478 69.468 173.458 68.7845 174.529 68.3048C177.611 66.9245 181.446 67.4146 184.083 69.5254C186.719 71.6363 188.035 75.2718 187.362 78.5812C186.815 81.2683 185.073 83.8688 185.718 86.5342C186.086 88.0568 187.217 89.5865 186.616 91.0334C186.599 91.0754 186.576 91.1145 186.556 91.1548C191.346 88.9745 196.912 88.3039 201.411 85.4954C202.059 85.091 202.711 84.6064 203.005 83.9012C203.606 82.4543 202.474 80.9246 202.106 79.4016C201.462 76.7366 203.204 74.1361 203.751 71.4491C203.76 71.4033 203.765 71.3567 203.773 71.311C202.624 68.1285 201.318 65.0047 199.86 61.9511C197.265 60.2225 193.77 59.8951 190.917 61.1727C189.847 61.6519 188.866 62.3355 187.751 62.697C183.23 64.1601 179.018 60.0511 174.57 58.3787C170.22 56.7426 165.335 57.4772 160.807 56.4293C156.278 55.3809 151.704 51.0182 153.334 46.6654C154.025 44.8179 155.682 43.485 156.509 41.6945C157.929 38.6235 156.641 34.9908 157.187 31.6523C157.904 27.2696 161.707 23.7331 162.303 19.4252C157.068 16.0641 151.539 13.1855 145.783 10.825C144.669 13.5881 144.301 16.6513 144.865 19.5792C145.246 21.5623 146.016 23.4959 145.995 25.5153C145.946 30.3094 141.572 34.0535 140.799 38.7845C140.253 42.1234 141.54 45.7556 140.121 48.8266C139.293 50.6172 137.637 51.9501 136.945 53.7976C135.315 58.1508 139.89 62.5131 144.418 63.5614C148.946 64.6098 153.831 63.8747 158.182 65.5109C162.629 67.1833 166.842 71.2922 171.362 69.8291Z" fill="#00BA66"/>
<path d="M195.039 157.762C189.933 152.322 186.547 145.291 185.478 137.907C184.971 134.41 184.968 130.831 184.099 127.405C182.363 120.554 177.27 114.709 176.619 107.671C176.161 102.73 178.171 97.6501 181.781 94.2658C176.944 96.2619 171.476 96.9841 167.161 99.9648C162.452 103.218 159.703 109.105 160.23 114.803C160.882 121.841 165.974 127.686 167.711 134.537C168.579 137.963 168.582 141.542 169.089 145.04C170.158 152.423 173.544 159.454 178.65 164.894C181.076 167.479 183.852 169.686 186.744 171.747C190.119 167.609 193.166 163.215 195.859 158.605C195.581 158.328 195.308 158.047 195.039 157.762Z" fill="#00BA66"/>
<path d="M109.092 17.0823C109.597 15.6969 109.74 14.1943 110.313 12.8356C111.535 9.93596 114.554 6.77883 115.538 3.79018C115.568 3.69991 115.59 3.60839 115.615 3.51769C112.598 3.25311 109.571 3.11458 106.544 3.11458V3.12789C97.5609 3.12798 88.6156 4.29339 79.9322 6.59495C81.5035 10.2925 83.9538 14.3174 87.0232 16.5635C88.3394 17.5266 89.8109 18.394 90.6479 19.7943C91.1201 20.5839 91.3605 21.5032 91.8905 22.2558C92.8573 23.6282 94.5834 24.1994 96.1896 24.6874C97.4343 25.0656 98.7119 25.4475 100.01 25.3664C101.308 25.2848 102.653 24.6408 103.202 23.4614C103.724 22.3398 103.622 20.717 104.759 20.2298C105.174 20.0518 105.647 20.0984 106.094 20.0343C107.553 19.8259 108.588 18.4676 109.092 17.0823Z" fill="#43CB8E"/>
<path d="M115.615 3.51849C112.548 3.24975 109.508 3.11413 106.544 3.11413V3.12744C97.8495 3.12744 88.7363 4.25276 79.9322 6.59492C81.1328 9.42007 82.848 12.4341 84.9593 14.7022C94.4619 9.77898 104.674 6.3664 115.227 4.58724C115.481 4.00274 115.537 3.79847 115.615 3.51849Z" fill="#00BA66"/>
</g>
</svg>
