<svg width="291" height="291" viewBox="0 0 291 291" fill="none" xmlns="http://www.w3.org/2000/svg">
<g clip-path="url(#clip0_1_2)">
<path d="M90.7537 10.6475C72.7227 17.9557 56.3514 28.8266 42.6196 42.6095C29.088 56.1066 18.3571 72.1446 11.0433 89.802C3.72963 107.459 -0.0226339 126.388 0.00218223 145.5C0.00218223 164.394 3.58882 182.818 10.6575 200.245C17.9648 218.276 28.8358 234.648 42.6196 248.379C56.3485 262.165 72.7205 273.037 90.7537 280.341C108.142 287.404 126.738 291.022 145.506 290.992C164.616 291.015 183.543 287.262 201.199 279.949C218.854 272.636 234.891 261.907 248.389 248.379C262.177 234.651 273.049 218.279 280.351 200.245C287.41 182.858 291.026 164.265 290.998 145.5C290.998 126.602 287.416 108.178 280.351 90.7436C273.033 72.6979 262.273 56.4937 248.389 42.6095C234.505 28.7254 218.317 17.9655 200.255 10.6475C182.866 3.59098 164.273 -0.0249271 145.506 0.000129333C126.608 0.000129333 108.188 3.58274 90.7537 10.6475ZM36.3671 206.75C29.3587 202.352 22.9012 197.285 17.1835 191.318C8.48257 166.776 6.94708 140.264 12.7565 114.881C15.4778 109.505 18.5931 104.337 22.0769 99.4207C23.1585 97.8968 24.1597 96.3085 25.3177 94.8289L58.1523 114.258V115.082C58.0791 132.708 59.8485 150.293 63.4318 167.551C63.4438 167.631 63.4559 167.675 63.472 167.748L38.0077 207.675C37.4467 207.393 36.8992 207.084 36.3671 206.75ZM133.994 274.249C139.627 277.127 145.47 279.574 151.473 281.567C125.669 282.714 100.069 276.514 77.6496 263.686L132.692 273.493C133.114 273.763 133.544 274.02 133.994 274.249ZM133.793 264.314L68.8399 252.737C61.2404 243.509 54.4049 233.747 48.5303 223.312C47.0346 220.659 45.3659 218.081 44.0993 215.311L69.5395 175.424C70.1024 175.564 70.7297 175.713 71.4414 175.902C87.3561 180.16 103.552 183.188 119.861 185.56C120.814 185.693 121.61 185.81 122.29 185.882L152.784 238.608C147.5 246.056 142.129 253.441 136.672 260.763C135.764 261.981 134.799 263.151 133.793 264.314ZM241.859 241.853C236.771 246.947 231.286 251.628 225.454 255.85C224.504 248.258 222.858 240.771 220.536 233.481L253.073 172.782C262.036 168.701 270.681 164.073 278.706 158.335C279.756 157.591 280.628 156.759 281.304 155.85C278.948 187.217 265.799 217.916 241.859 241.853ZM240.415 163.132C241.626 165.44 242.82 167.772 244.018 170.136L212.591 228.761C212.41 228.801 212.237 228.841 212.056 228.865C195.112 232.054 177.914 233.708 160.673 233.807L129.31 179.577C134.19 170.511 139.028 161.422 143.825 152.312C147.082 146.135 150.283 139.919 153.48 133.707L218.389 127.04C226.338 138.701 233.869 150.611 240.415 163.132ZM227.247 93.5944C224.167 101.729 220.87 109.779 217.593 117.844L154.36 124.338C153.608 123.338 152.819 122.366 151.996 121.423C144.529 112.967 137.014 104.563 129.511 96.1357C129.579 96.0512 129.648 95.9869 129.716 95.9105C126.688 92.8868 123.653 89.8631 120.625 86.8313L138.228 33.8319C139.432 33.4981 140.659 33.2562 141.899 33.1082C151.469 32.1351 161.051 31.0334 170.645 30.4785C176.519 30.1488 182.426 29.9598 188.401 30.382L231.955 79.4731C230.456 84.2097 228.992 88.9584 227.247 93.5944ZM241.859 49.1395C253.537 60.7969 262.991 74.4869 269.756 89.5374C261.616 83.9694 252.904 79.2879 243.769 75.5728C242.33 74.9907 240.873 74.4517 239.402 73.9564L196.531 25.6373C196.829 23.5505 196.986 21.4596 197.05 19.3527C213.826 26.1893 229.062 36.3175 241.859 49.1395ZM101.867 16.8155C102.036 16.9401 102.117 17.0447 102.213 17.0728C112.012 20.4584 120.926 25.4443 129.33 31.3591L112.885 80.8844C112.801 80.9065 112.719 80.9347 112.639 80.9688C109.274 82.3601 105.844 83.6065 102.531 85.1144C88.88 91.3186 75.5708 98.1903 63.0337 106.429L30.5811 87.2294C30.6165 86.2196 30.8078 85.2214 31.148 84.27C33.3273 78.4638 35.4705 72.6255 37.9353 66.9359C39.8404 62.5701 41.9841 58.3122 44.3566 54.1817C60.0301 36.7755 79.9491 23.7308 102.169 16.3209C102.069 16.4777 101.964 16.6426 101.867 16.8155Z" fill="black"/>
</g>
<defs>
<clipPath id="clip0_1_2">
<rect width="291" height="291" fill="white"/>
</clipPath>
</defs>
</svg>
