<svg width="40" height="40" viewBox="0 0 40 40" fill="none" xmlns="http://www.w3.org/2000/svg">
<g clip-path="url(#clip0_1384_18877)">
<path d="M20.0004 39.4148C30.0604 39.4148 38.2156 31.2596 38.2156 21.1996C38.2156 11.1396 30.0604 2.98438 20.0004 2.98438C9.9404 2.98438 1.78516 11.1396 1.78516 21.1996C1.78516 31.2596 9.9404 39.4148 20.0004 39.4148Z" fill="#B3D8FB"/>
<path d="M19.9991 2.98438C18.8076 2.98438 17.6433 3.10008 16.5156 3.31852C24.9091 4.94422 31.2474 12.3311 31.2474 21.1996C31.2474 30.0681 24.9091 37.455 16.5156 39.0807C17.6433 39.2991 18.8076 39.4148 19.9991 39.4148C30.0591 39.4148 38.2143 31.2596 38.2143 21.1996C38.2143 11.1396 30.0591 2.98438 19.9991 2.98438Z" fill="#89C6FC"/>
<path d="M14.9103 16.9831L12.9442 19.7603C11.9971 21.0983 12.3139 22.9507 13.6518 23.8978L14.1515 24.2515C14.969 24.8303 15.4395 25.7822 15.4027 26.7832L15.1146 34.6134C15.0916 35.239 15.3847 35.8342 15.8946 36.1972C16.5341 36.6526 17.3906 36.6576 18.0353 36.2097L23.4211 32.4679C24.2014 31.9258 24.8813 31.2519 25.4303 30.4765L28.9006 25.5741C29.6481 24.5182 29.3981 23.0562 28.3422 22.3087L19.6696 16.1692C18.1306 15.0797 15.9997 15.4441 14.9103 16.9831Z" fill="#05E29A"/>
<path d="M18.8881 4.73383C18.4664 4.25023 18.4077 3.56953 18.6977 3.03125C15.5455 3.25406 12.6151 4.27867 10.1088 5.90273L7.55641 8.45508C6.895 9.11648 6.52344 10.0135 6.52344 10.9489V13.792C6.52344 14.5303 7.35305 14.9643 7.95953 14.5433L10.0567 13.0872C10.7388 12.6136 11.5494 12.3598 12.3798 12.3598H15.0788C15.963 12.3598 16.8111 12.0086 17.4364 11.3833L20.0998 8.71984C20.7808 8.03883 20.818 6.94687 20.1851 6.22102L18.8881 4.73383Z" fill="#05E29A"/>
<path d="M32.1112 7.59485L31.0685 11.224C30.6583 12.6516 30.7673 14.1782 31.3758 15.5331L32.5143 18.0677C33.0306 19.2172 34.1735 19.9566 35.4337 19.9566C36.0698 19.9566 36.6914 19.7671 37.2192 19.4122L38.0645 18.8439C37.4892 14.3887 35.3037 10.4388 32.1112 7.59485Z" fill="#1DD08D"/>
<path d="M38.1696 9.94953C38.0539 12.7236 35.9392 15.1495 34.8964 16.183C34.5797 16.4969 34.07 16.4973 33.7533 16.1835C32.6812 15.1211 30.4746 12.5855 30.4746 9.71297C30.4746 7.57258 32.2213 5.84016 34.3669 5.8632C36.5558 5.88672 38.2609 7.76242 38.1696 9.94953Z" fill="#FC6B55"/>
<path d="M34.748 5.88672C35.392 6.62375 35.7663 7.605 35.7223 8.65937C35.6096 11.3612 33.6012 13.7322 32.5332 14.8087C32.983 15.3854 33.423 15.855 33.7545 16.1835C34.0712 16.4973 34.5809 16.4968 34.8977 16.183C35.9405 15.1495 38.0551 12.7237 38.1709 9.94953C38.2567 7.89078 36.7508 6.10844 34.748 5.88672Z" fill="#FC534E"/>
<path d="M34.3252 11.7413C35.3656 11.7413 36.2091 10.8979 36.2091 9.8575C36.2091 8.81709 35.3656 7.97367 34.3252 7.97367C33.2848 7.97367 32.4414 8.81709 32.4414 9.8575C32.4414 10.8979 33.2848 11.7413 34.3252 11.7413Z" fill="#E5ECF1"/>
<path d="M34.6902 8.00922C35.0424 8.35148 35.2616 8.83008 35.2616 9.36008C35.2616 10.4005 34.4182 11.2439 33.3778 11.2439C33.2532 11.2439 33.1315 11.2315 33.0137 11.2084C33.3529 11.538 33.8156 11.7413 34.326 11.7413C35.3664 11.7413 36.2098 10.8979 36.2098 9.8575C36.2098 8.94172 35.5562 8.1789 34.6902 8.00922Z" fill="#C2D0DA"/>
<path d="M26.0622 16.0896C25.9465 18.8637 23.8318 21.2895 22.789 22.323C22.4723 22.637 21.9626 22.6374 21.6459 22.3236C20.5737 21.2612 18.3672 18.7256 18.3672 15.853C18.3672 13.7127 20.1138 11.9802 22.2595 12.0033C24.4484 12.0268 26.1534 13.9026 26.0622 16.0896Z" fill="#FC6B55"/>
<path d="M22.6387 12.0268C23.2826 12.7638 23.657 13.7451 23.613 14.7995C23.5002 17.5013 21.4918 19.8723 20.4238 20.9487C20.8736 21.5255 21.3136 21.9951 21.6452 22.3236C21.9619 22.6374 22.4716 22.6369 22.7883 22.323C23.8311 21.2896 25.9457 18.8637 26.0615 16.0896C26.1473 14.0309 24.6413 12.2486 22.6387 12.0268Z" fill="#FC534E"/>
<path d="M22.2178 17.8815C23.2582 17.8815 24.1016 17.0381 24.1016 15.9977C24.1016 14.9572 23.2582 14.1138 22.2178 14.1138C21.1774 14.1138 20.334 14.9572 20.334 15.9977C20.334 17.0381 21.1774 17.8815 22.2178 17.8815Z" fill="#E5ECF1"/>
<path d="M22.5808 14.1494C22.933 14.4916 23.1523 14.9702 23.1523 15.5002C23.1523 16.5406 22.3088 17.384 21.2684 17.384C21.1438 17.384 21.0221 17.3716 20.9043 17.3485C21.2435 17.6781 21.7063 17.8815 22.2166 17.8815C23.257 17.8815 24.1005 17.038 24.1005 15.9976C24.1005 15.0819 23.4469 14.319 22.5808 14.1494Z" fill="#C2D0DA"/>
<path d="M20.0934 25.1217C19.9777 27.8957 17.863 30.3216 16.8202 31.3551C16.5035 31.669 15.9938 31.6695 15.6771 31.3556C14.605 30.2932 12.3984 27.7577 12.3984 24.8851C12.3984 22.7447 14.1451 21.0123 16.2907 21.0353C18.4796 21.0588 20.1847 22.9345 20.0934 25.1217Z" fill="#FC6B55"/>
<path d="M16.6699 21.0588C17.3138 21.7959 17.6882 22.7771 17.6442 23.8315C17.5315 26.5334 15.523 28.9043 14.4551 29.9808C14.9048 30.5575 15.3448 31.0271 15.6764 31.3556C15.9931 31.6695 16.5028 31.6689 16.8195 31.3551C17.8623 30.3216 19.977 27.8958 20.0927 25.1216C20.1786 23.0629 18.6727 21.2806 16.6699 21.0588Z" fill="#FC534E"/>
<path d="M16.2471 26.9135C17.2875 26.9135 18.1309 26.0701 18.1309 25.0297C18.1309 23.9893 17.2875 23.1459 16.2471 23.1459C15.2067 23.1459 14.3633 23.9893 14.3633 25.0297C14.3633 26.0701 15.2067 26.9135 16.2471 26.9135Z" fill="#E5ECF1"/>
<path d="M16.612 23.1813C16.9643 23.5236 17.1835 24.0022 17.1835 24.5322C17.1835 25.5726 16.3401 26.416 15.2997 26.416C15.1751 26.416 15.0534 26.4036 14.9355 26.3805C15.2748 26.7102 15.7375 26.9135 16.2479 26.9135C17.2883 26.9135 18.1317 26.0701 18.1317 25.0297C18.1316 24.1139 17.478 23.351 16.612 23.1813Z" fill="#C2D0DA"/>
<path d="M11.5856 4.6717C11.4699 7.44576 9.35523 9.87162 8.31242 10.9051C7.9957 11.219 7.48602 11.2195 7.1693 10.9057C6.09719 9.84326 3.89062 7.30772 3.89062 4.43514C3.89062 2.29475 5.63727 0.562324 7.78289 0.585371C9.9718 0.608809 11.6769 2.48459 11.5856 4.6717Z" fill="#FC6B55"/>
<path d="M8.16406 0.608826C8.80797 1.34586 9.18234 2.32711 9.13836 3.38148C9.02563 6.08336 7.01719 8.45429 5.94922 9.53078C6.39898 10.1075 6.83898 10.5771 7.17055 10.9056C7.48727 11.2194 7.99695 11.2189 8.31367 10.9051C9.35648 9.87164 11.4711 7.44578 11.5869 4.67164C11.6727 2.61297 10.1668 0.830623 8.16406 0.608826Z" fill="#FC534E"/>
<path d="M7.74125 6.46351C8.78166 6.46351 9.62508 5.6201 9.62508 4.57969C9.62508 3.53928 8.78166 2.69586 7.74125 2.69586C6.70084 2.69586 5.85742 3.53928 5.85742 4.57969C5.85742 5.6201 6.70084 6.46351 7.74125 6.46351Z" fill="#E5ECF1"/>
<path d="M8.10617 2.73138C8.45844 3.07365 8.67766 3.55224 8.67766 4.08224C8.67766 5.12263 7.83422 5.96607 6.79383 5.96607C6.66922 5.96607 6.5475 5.95365 6.42969 5.93053C6.76891 6.26013 7.23164 6.46349 7.74203 6.46349C8.78242 6.46349 9.62586 5.62006 9.62586 4.57967C9.62578 3.66388 8.97227 2.90107 8.10617 2.73138Z" fill="#C2D0DA"/>
<path d="M37.3818 14.0276C38.1046 12.8662 38.6916 11.477 38.7544 9.97391C38.8055 8.74992 38.3527 7.53984 37.5121 6.65398C36.6824 5.77969 35.5677 5.29102 34.3734 5.27812C34.3569 5.27797 34.3407 5.27789 34.3242 5.27789C33.2727 5.27789 32.2777 5.64211 31.4805 6.31109C28.2073 3.7857 24.1469 2.39937 19.9997 2.39937C17.2927 2.39937 14.6003 2.99039 12.1557 4.11172C12.0658 3.09375 11.6347 2.12039 10.9284 1.37609C10.0988 0.501719 8.98406 0.0132031 7.78984 0.0003125C7.77313 7.8125e-05 7.75695 0 7.74047 0C6.56469 0 5.45883 0.454219 4.62195 1.28211C3.77336 2.12156 3.30594 3.24141 3.30594 4.43508C3.30594 6.40812 4.23203 8.20039 5.23344 9.56172C4.05852 11.0502 3.12039 12.697 2.4425 14.4626C2.32672 14.7643 2.47742 15.1027 2.77898 15.2186C2.84805 15.245 2.91883 15.2576 2.98859 15.2576C3.22375 15.2576 3.44562 15.1147 3.535 14.882C4.1332 13.3239 4.94789 11.8644 5.96031 10.5343C5.94633 10.6721 5.93734 10.8109 5.93734 10.9489V13.792C5.93734 14.3521 6.24563 14.8612 6.74187 15.1209C6.96133 15.2357 7.19984 15.2924 7.43758 15.2924C7.73727 15.2924 8.0357 15.202 8.29234 15.0239L10.3895 13.5678C10.9764 13.1604 11.6642 12.945 12.3788 12.945H15.0779C16.1248 12.945 17.109 12.5373 17.8493 11.7971L20.5127 9.13367C21.4077 8.23867 21.4571 6.79047 20.6252 5.83648L19.3282 4.34938C19.1453 4.13969 19.0716 3.85992 19.1155 3.59367C19.4098 3.57883 19.7046 3.56961 19.9997 3.56961C23.8555 3.56961 27.6307 4.84797 30.6859 7.17742C30.1691 7.91563 29.8898 8.79203 29.8898 9.71305C29.8898 10.5239 30.0471 11.3038 30.3009 12.0362C30.1283 13.3091 30.3146 14.6007 30.8411 15.773L31.9795 18.3076C32.5892 19.6648 33.9446 20.542 35.4327 20.542C36.1877 20.542 36.9181 20.3192 37.5447 19.898L37.5809 19.8737C37.6134 20.313 37.6298 20.7551 37.6298 21.1998C37.6298 30.9211 29.7209 38.8299 19.9996 38.8299C10.2783 38.8299 2.36945 30.9209 2.36945 21.1996C2.36945 19.8352 2.52578 18.4764 2.83414 17.1609C2.90789 16.8462 2.71266 16.5314 2.39805 16.4577C2.08344 16.3835 1.76852 16.5791 1.69484 16.8938C1.36594 18.2968 1.19922 19.7455 1.19922 21.1997C1.19922 26.2215 3.15484 30.9427 6.70578 34.4936C10.2566 38.0445 14.9778 40 19.9996 40C25.0214 40 29.7426 38.0445 33.2934 34.4935C36.8444 30.9426 38.8 26.2213 38.8 21.1996C38.8 18.7145 38.322 16.303 37.3818 14.0276ZM5.445 2.11398C6.06102 1.50453 6.87508 1.17023 7.74086 1.17023C7.75289 1.17023 7.765 1.17031 7.77711 1.17047C8.65195 1.17984 9.46961 1.53891 10.0795 2.18156C10.7034 2.83906 11.0395 3.73773 11.0015 4.64727C10.8927 7.25461 8.79703 9.60156 7.90102 10.4895C7.81281 10.5769 7.66938 10.577 7.58164 10.49C6.64797 9.56477 4.47617 7.12258 4.47617 4.43508C4.47617 3.55633 4.82023 2.73203 5.445 2.11398ZM18.4462 5.11844L19.7432 6.60563C20.1722 7.09758 20.1468 7.84453 19.6852 8.30609L17.0217 10.9695C16.5025 11.4888 15.8122 11.7748 15.0779 11.7748H12.3788C11.4246 11.7748 10.5059 12.0624 9.72219 12.6066L7.625 14.0626C7.47727 14.1654 7.33766 14.1117 7.28438 14.0839C7.23125 14.0561 7.10773 13.972 7.10773 13.792V11.5729C7.30594 11.6732 7.52336 11.7241 7.74102 11.7241C8.09727 11.7241 8.45359 11.5896 8.72492 11.3208C9.85344 10.2023 11.695 8.02773 12.0966 5.43805C13.9176 4.52391 15.902 3.93156 17.9351 3.6918C17.9227 4.20461 18.0968 4.71773 18.4462 5.11844ZM34.3246 6.44805C34.3366 6.44805 34.3487 6.44813 34.3608 6.44828C35.2357 6.45766 36.0534 6.8168 36.6632 7.45945C37.2871 8.11695 37.6232 9.01562 37.5852 9.92508C37.4764 12.5324 35.3808 14.8794 34.4848 15.7673C34.3966 15.8548 34.2531 15.8549 34.1654 15.7679C33.2317 14.8426 31.06 12.4004 31.06 9.71297C31.06 8.83422 31.4041 8.00984 32.0288 7.3918C32.6448 6.78242 33.4587 6.44805 34.3246 6.44805ZM36.8917 18.9267C36.4588 19.2177 35.9543 19.3716 35.4327 19.3716C34.4047 19.3716 33.4682 18.7656 33.047 17.8279L31.9086 15.2934C31.8089 15.0713 31.7246 14.844 31.6545 14.613C32.2317 15.4332 32.8501 16.112 33.3416 16.5991C33.6127 16.8676 33.9685 17.0018 34.3245 17.0018C34.6808 17.0018 35.0371 16.8673 35.3084 16.5985C35.6789 16.2314 36.1263 15.7498 36.5744 15.1777C36.9744 16.2767 37.2618 17.4073 37.4346 18.5617L36.8917 18.9267Z" fill="black"/>
<path d="M34.3244 12.3265C35.6858 12.3265 36.7933 11.2189 36.7933 9.85758C36.7933 8.49625 35.6857 7.38867 34.3244 7.38867C32.963 7.38867 31.8555 8.49625 31.8555 9.85758C31.8555 11.2189 32.963 12.3265 34.3244 12.3265ZM34.3244 8.55883C35.0405 8.55883 35.623 9.14141 35.623 9.8575C35.623 10.5736 35.0405 11.1562 34.3244 11.1562C33.6083 11.1562 33.0257 10.5736 33.0257 9.8575C33.0257 9.14141 33.6083 8.55883 34.3244 8.55883Z" fill="black"/>
<path d="M25.4054 12.7941C24.5757 11.9198 23.4611 11.4311 22.2668 11.4182C22.2502 11.418 22.234 11.418 22.2176 11.418C21.0418 11.418 19.9359 11.8722 19.099 12.7001C18.4662 13.3261 18.0458 14.108 17.8726 14.9602C16.5287 14.9018 15.2252 15.5258 14.4329 16.6452L12.4668 19.4223C11.6996 20.5061 11.604 21.9107 12.1962 23.0796C11.9461 23.6403 11.8135 24.252 11.8135 24.8851C11.8135 27.4625 13.3933 29.7307 14.6573 31.1332L14.5301 34.592C14.4997 35.4169 14.883 36.1952 15.5554 36.6739C15.9785 36.9752 16.4761 37.1261 16.974 37.1261C17.4622 37.126 17.9508 36.9809 18.3692 36.6902L23.7551 32.9485C24.5938 32.3659 25.318 31.6478 25.9079 30.8146L27.5339 28.5179C27.7206 28.2541 27.6582 27.8889 27.3943 27.7022C27.1307 27.5154 26.7654 27.5779 26.5787 27.8416L24.9527 30.1385C24.4415 30.8605 23.814 31.4827 23.0873 31.9875L17.7014 35.7292C17.2606 36.0352 16.6711 36.0319 16.2341 35.7207C15.8835 35.471 15.6836 35.0652 15.6994 34.635L15.7947 32.0976C15.9415 32.1476 16.0947 32.1741 16.2483 32.1741C16.6044 32.1741 16.9608 32.0396 17.2321 31.7707C18.4668 30.547 20.5565 28.0591 20.678 25.1461C20.729 23.922 20.2762 22.712 19.4356 21.8261C18.6059 20.9517 17.4912 20.4631 16.2969 20.4502C15.1061 20.4359 13.9777 20.8927 13.1293 21.7322C13.0897 21.7712 13.0519 21.8116 13.0141 21.8519C12.9175 21.2483 13.0537 20.6184 13.4218 20.0985L15.3878 17.3213C15.9419 16.5387 16.85 16.0997 17.789 16.1293C17.9147 19.0262 19.9851 21.501 21.2347 22.7393C21.5058 23.0078 21.8616 23.142 22.2176 23.142C22.574 23.142 22.9303 23.0077 23.2016 22.7388C23.7111 22.2338 24.3658 21.5133 24.9681 20.637L28.0042 22.7863C28.3873 23.0575 28.6418 23.4616 28.7211 23.9245C28.8002 24.3871 28.6944 24.853 28.4232 25.2361L27.9963 25.8391C27.8096 26.1028 27.872 26.468 28.1358 26.6548C28.2385 26.7274 28.3565 26.7624 28.4733 26.7624C28.6568 26.7624 28.8374 26.6764 28.9514 26.5153L29.3783 25.9123C29.8301 25.2741 30.0064 24.498 29.8745 23.7271C29.7427 22.9563 29.3186 22.283 28.6803 21.8312L25.5848 19.6398C26.1597 18.5944 26.594 17.3954 26.6476 16.1141C26.6988 14.8901 26.246 13.68 25.4054 12.7941ZM16.2484 21.6202C16.2604 21.6202 16.2726 21.6202 16.2845 21.6204C17.1594 21.6298 17.9771 21.9889 18.5869 22.6316C19.2108 23.2891 19.5469 24.1877 19.509 25.0973C19.4002 27.7047 17.3045 30.0515 16.4084 30.9395C16.3204 31.027 16.1771 31.027 16.0892 30.9399C15.1554 30.0148 12.9837 27.5728 12.9837 24.8851C12.9837 24.0064 13.3278 23.1821 13.9525 22.564C14.5686 21.9545 15.3826 21.6202 16.2484 21.6202ZM22.378 21.9075C22.29 21.995 22.1465 21.9952 22.0586 21.908C21.125 20.9827 18.9533 18.5405 18.9533 15.8531C18.9533 14.9744 19.2973 14.15 19.9221 13.532C20.5381 12.9225 21.3522 12.5882 22.2179 12.5882C22.23 12.5882 22.2421 12.5883 22.2541 12.5884C23.129 12.5978 23.9467 12.957 24.5565 13.5996C25.1804 14.2571 25.5165 15.1558 25.4786 16.0652C25.3697 18.6727 23.274 21.0195 22.378 21.9075Z" fill="black"/>
<path d="M24.1008 15.4126C23.7776 15.4126 23.5156 15.6745 23.5156 15.9977C23.5156 16.7138 22.933 17.2964 22.217 17.2964C21.5009 17.2964 20.9183 16.7138 20.9183 15.9977C20.9183 15.2816 21.5009 14.6991 22.217 14.6991C22.3038 14.6991 22.3905 14.7077 22.4747 14.7246C22.7919 14.7878 23.1 14.5829 23.1637 14.2662C23.2273 13.9493 23.022 13.6409 22.7052 13.5772C22.5453 13.5451 22.381 13.5288 22.217 13.5288C20.8555 13.5288 19.748 14.6364 19.748 15.9977C19.748 17.3591 20.8556 18.4666 22.217 18.4666C23.5784 18.4666 24.6859 17.3591 24.6859 15.9977C24.6859 15.6745 24.424 15.4126 24.1008 15.4126Z" fill="black"/>
<path d="M16.2482 27.4986C17.6096 27.4986 18.7171 26.391 18.7171 25.0297C18.7171 23.6684 17.6095 22.5608 16.2482 22.5608C14.8869 22.5608 13.7793 23.6684 13.7793 25.0297C13.7793 26.391 14.8868 27.4986 16.2482 27.4986ZM16.2482 23.7309C16.9643 23.7309 17.5469 24.3135 17.5469 25.0296C17.5469 25.7457 16.9643 26.3283 16.2482 26.3283C15.5321 26.3283 14.9495 25.7457 14.9495 25.0296C14.9495 24.3136 15.5321 23.7309 16.2482 23.7309Z" fill="black"/>
<path d="M10.2113 4.57968C10.2113 3.21828 9.10375 2.11078 7.74242 2.11078C6.38109 2.11078 5.27344 3.21836 5.27344 4.57968C5.27344 5.94101 6.38102 7.04851 7.74234 7.04851C9.10367 7.04851 10.2113 5.94101 10.2113 4.57968ZM6.44375 4.57968C6.44375 3.86359 7.02633 3.28101 7.74242 3.28101C8.45852 3.28101 9.04109 3.86359 9.04109 4.57968C9.04109 5.29578 8.45852 5.87828 7.74242 5.87828C7.02633 5.87828 6.44375 5.29578 6.44375 4.57968Z" fill="black"/>
</g>
<defs>
<clipPath id="clip0_1384_18877">
<rect width="40" height="40" fill="white"/>
</clipPath>
</defs>
</svg>
