<svg width="136" height="146" viewBox="0 0 136 146" fill="none" xmlns="http://www.w3.org/2000/svg">
<path fill-rule="evenodd" clip-rule="evenodd" d="M96.2214 80.5694H67.7399C65.174 80.5694 65.174 76.635 67.7399 76.635H96.2214C98.7018 76.635 98.7018 80.5694 96.2214 80.5694ZM75.6942 133.342H97.8465C98.9584 133.342 99.8137 134.197 99.8137 135.309V143.862C99.8137 144.888 98.9584 145.743 97.8465 145.743H37.6333C36.6069 145.743 35.7516 144.888 35.7516 143.862V135.309C35.7516 134.197 36.6069 133.342 37.6333 133.342H59.8711V116.749H4.01992C1.79613 116.749 0 114.953 0 112.814V33.3568C0 31.133 1.79613 29.3368 4.01992 29.3368H21.8102V7.69772C21.8102 3.42121 25.2314 0 29.5079 0H106.057C110.248 0 113.67 3.42121 113.67 7.69772V29.3368H131.545C133.684 29.3368 135.565 31.133 135.565 33.3568V112.814C135.565 114.953 133.684 116.749 131.545 116.749H75.6942V133.342ZM63.72 133.342H71.8453V116.749H63.72V133.342ZM95.8793 137.276L39.6005 137.19V141.895H95.8793V137.276ZM25.7446 31.2185V84.2472C25.7446 86.2999 27.4552 88.0105 29.5079 88.0105H106.057C108.11 88.0105 109.821 86.2999 109.821 84.2472V7.69772C109.821 5.55946 108.11 3.93439 106.057 3.93439H29.5079C27.4552 3.93439 25.7446 5.55946 25.7446 7.69772V31.2185ZM21.8102 33.2712H4.01992C3.93439 33.2712 3.93439 33.2712 3.93439 33.3568V101.524H131.631V33.3568C131.631 33.2712 131.545 33.2712 131.545 33.2712H113.67V84.2472C113.67 88.4382 110.248 91.8594 106.057 91.8594H29.5079C25.2314 91.8594 21.8102 88.4382 21.8102 84.2472V33.2712ZM3.93439 105.373C3.93439 106.143 3.76333 112.9 4.01992 112.9H131.545C131.802 112.9 131.631 106.143 131.631 105.373H3.93439ZM114.268 111.104H108.709C106.228 111.104 106.228 107.169 108.709 107.169H114.268C116.834 107.169 116.834 111.104 114.268 111.104ZM125.9 111.104H120.426C117.861 111.104 117.861 107.169 120.426 107.169H125.9C128.466 107.169 128.466 111.104 125.9 111.104ZM67.7399 33.0146H66.9701C63.1213 33.0146 60.0422 29.85 60.0422 26.0012V18.3035C60.0422 8.98067 74.6678 8.98067 74.6678 18.3035V26.0012C74.6678 29.85 71.5888 33.0146 67.7399 33.0146ZM66.9701 15.2244C65.2595 15.2244 63.891 16.5929 63.891 18.3035V26.0012C63.891 30.1921 70.819 30.1921 70.819 26.0012V18.3035C70.819 15.9941 68.9373 15.2244 66.9701 15.2244ZM49.9496 32.9291C43.7914 32.9291 41.6532 24.6327 45.5021 24.6327C46.6139 24.6327 47.4692 25.488 47.4692 26.5999C47.4692 29.85 52.43 29.85 52.43 26.5999V13.3427C52.43 10.7768 56.3644 10.7768 56.3644 13.3427V26.5999C56.3644 30.1066 53.4564 32.9291 49.9496 32.9291ZM83.8196 24.1195H81.3392V29.0803C84.1617 29.0803 88.0105 29.7645 88.0105 26.5999C88.0105 23.9484 85.3591 24.1195 83.8196 24.1195ZM77.4903 22.1523C77.4903 10.007 76.2929 11.3755 83.8196 11.3755C89.0369 11.3755 92.0305 17.106 89.1224 21.297C94.3398 24.8893 91.7739 33.0146 85.5302 33.0146H79.372C78.3456 33.0146 77.4903 32.1593 77.4903 31.0475V22.1523ZM83.9051 20.1851C87.1552 20.0996 87.0697 15.2244 83.8196 15.2244H81.3392V20.1851H83.9051ZM96.2214 47.0416H39.3439C36.778 47.0416 36.778 43.1072 39.3439 43.1072H96.2214C98.7018 43.1072 98.7018 47.0416 96.2214 47.0416ZM96.2214 58.1605H39.3439C36.778 58.1605 36.778 54.3117 39.3439 54.3117H96.2214C98.7018 54.3117 98.7018 58.1605 96.2214 58.1605ZM96.2214 69.365H39.3439C36.778 69.365 36.778 65.5161 39.3439 65.5161H96.2214C98.7018 65.5161 98.7018 69.365 96.2214 69.365Z" fill="#333333"/>
<path fill-rule="evenodd" clip-rule="evenodd" d="M71.8454 116.749H63.72V133.342H71.8454V116.749ZM95.8793 137.276L39.6005 137.19V141.895H95.8793V137.276ZM4.01993 112.9H131.545C131.802 112.9 131.631 106.143 131.631 105.373H3.9344C3.9344 106.143 3.76334 112.9 4.01993 112.9ZM108.709 111.104C106.228 111.104 106.228 107.169 108.709 107.169H114.268C116.834 107.169 116.834 111.104 114.268 111.104H108.709ZM120.426 111.104C117.861 111.104 117.861 107.169 120.426 107.169H125.9C128.466 107.169 128.466 111.104 125.9 111.104H120.426Z" fill="#BC4D4D"/>
<path fill-rule="evenodd" clip-rule="evenodd" d="M3.93439 101.524H131.631V33.3568C131.631 33.2712 131.545 33.2712 131.545 33.2712H113.67V84.2472C113.67 88.4382 110.248 91.8594 106.057 91.8594H29.5079C25.2314 91.8594 21.8102 88.4382 21.8102 84.2472V33.2712H4.01992C3.93439 33.2712 3.93439 33.2712 3.93439 33.3568V101.524Z" fill="#75F2C8"/>
<path fill-rule="evenodd" clip-rule="evenodd" d="M29.5079 88.0105H106.057C108.11 88.0105 109.821 86.2999 109.821 84.2472V7.69771C109.821 5.55946 108.11 3.93439 106.057 3.93439H29.5079C27.4552 3.93439 25.7446 5.55946 25.7446 7.69771V84.2472C25.7446 86.2999 27.4552 88.0105 29.5079 88.0105ZM96.2214 80.5694H67.7399C65.174 80.5694 65.174 76.635 67.7399 76.635H96.2214C98.7018 76.635 98.7018 80.5694 96.2214 80.5694ZM96.2214 69.365H39.3439C36.778 69.365 36.778 65.5161 39.3439 65.5161H96.2214C98.7018 65.5161 98.7018 69.365 96.2214 69.365ZM96.2214 58.1605H39.3439C36.778 58.1605 36.778 54.3117 39.3439 54.3117H96.2214C98.7018 54.3117 98.7018 58.1605 96.2214 58.1605ZM96.2214 47.0416H39.3439C36.778 47.0416 36.778 43.1072 39.3439 43.1072H96.2214C98.7018 43.1072 98.7018 47.0416 96.2214 47.0416ZM67.7399 33.0146H66.9701C63.1213 33.0146 60.0422 29.85 60.0422 26.0012V18.3035C60.0422 8.98067 74.6678 8.98067 74.6678 18.3035V26.0012C74.6678 29.85 71.5887 33.0146 67.7399 33.0146ZM49.9496 32.9291C43.7914 32.9291 41.6532 24.6327 45.502 24.6327C46.6139 24.6327 47.4692 25.488 47.4692 26.5999C47.4692 29.85 52.43 29.85 52.43 26.5999V13.3427C52.43 10.7768 56.3644 10.7768 56.3644 13.3427V26.5999C56.3644 30.1066 53.4563 32.9291 49.9496 32.9291ZM85.5302 33.0146H79.372C78.3456 33.0146 77.4903 32.1593 77.4903 31.0475V22.1523C77.4903 10.007 76.2929 11.3755 83.8196 11.3755C89.0369 11.3755 92.0304 17.106 89.1224 21.297C94.3398 24.8893 91.7739 33.0146 85.5302 33.0146Z" fill="#FFE4AF"/>
<path fill-rule="evenodd" clip-rule="evenodd" d="M81.3392 29.0803C84.1617 29.0803 88.0106 29.7645 88.0106 26.5999C88.0106 23.9484 85.3591 24.1195 83.8196 24.1195H81.3392V29.0803ZM70.819 26.0012V18.3035C70.819 15.9941 68.9373 15.2244 66.9701 15.2244C65.2595 15.2244 63.8911 16.5928 63.8911 18.3035V26.0012C63.8911 30.1921 70.819 30.1921 70.819 26.0012ZM81.3392 15.2244V20.1851H83.9051C87.1553 20.0996 87.0697 15.2244 83.8196 15.2244H81.3392Z" fill="#FFE4AF"/>
</svg>
