<svg width="40" height="40" viewBox="0 0 40 40" fill="none" xmlns="http://www.w3.org/2000/svg">
<g clip-path="url(#clip0_1384_18806)">
<path d="M30.9502 39.4141H4.61484C3.11461 39.4141 1.89844 38.1979 1.89844 36.6977V3.30234C1.89844 1.80211 3.11461 0.585938 4.61484 0.585938H30.9502C32.4505 0.585938 33.6666 1.80211 33.6666 3.30234V36.6977C33.6666 38.1979 32.4505 39.4141 30.9502 39.4141Z" fill="#F7EBEB"/>
<path d="M31.3001 0.60907C31.3148 0.723601 31.3232 0.840085 31.3232 0.958601V34.3539C31.3232 35.8541 30.107 37.0703 28.6068 37.0703H2.27141C2.15289 37.0703 2.03641 37.0619 1.92188 37.0472C2.09352 38.3822 3.23344 39.4141 4.61516 39.4141H30.9505C32.4508 39.4141 33.667 38.1979 33.667 36.6977V3.30235C33.667 1.92063 32.6351 0.78071 31.3001 0.60907Z" fill="#F2E1E1"/>
<path d="M33.6666 6.27117V3.30234C33.6666 1.80211 32.4505 0.585938 30.9502 0.585938H4.61484C3.11461 0.585938 1.89844 1.80211 1.89844 3.30234V6.27117H33.6666Z" fill="#0094FF"/>
<path d="M30.9512 0.585938H28.6074C30.1077 0.585938 31.3238 1.80211 31.3238 3.30234V6.27117H33.6676V3.30234C33.6676 1.80211 32.4514 0.585938 30.9512 0.585938Z" fill="#0083FF"/>
<path d="M31.9337 36.1821C35.3391 36.1821 38.0998 33.4214 38.0998 30.016C38.0998 26.6106 35.3391 23.8499 31.9337 23.8499C28.5282 23.8499 25.7676 26.6106 25.7676 30.016C25.7676 33.4214 28.5282 36.1821 31.9337 36.1821Z" fill="#00D8A2"/>
<path d="M31.9338 23.85C31.533 23.85 31.1415 23.8895 30.762 23.9626C33.6067 24.5102 35.7562 27.0115 35.7562 30.016C35.7562 33.0206 33.6067 35.5219 30.762 36.0695C31.1415 36.1425 31.533 36.182 31.9338 36.182C35.3392 36.182 38.0999 33.4214 38.0999 30.016C38.0999 26.6106 35.3393 23.85 31.9338 23.85Z" fill="#00C4A4"/>
<path d="M35.5701 28.331L34.427 27.1879C34.1857 26.9466 33.7945 26.9466 33.5532 27.1879L31.2342 29.5068C31.1164 29.6246 30.9254 29.6246 30.8076 29.5068L30.3132 29.0123C30.0719 28.7711 29.6807 28.7711 29.4394 29.0123L28.2962 30.1555C28.0549 30.3967 28.0549 30.788 28.2962 31.0293L29.6758 32.4644C30.0202 32.8227 30.4958 33.0252 30.9929 33.0252C31.4774 33.0252 31.9421 32.8327 32.2847 32.4902L35.5701 29.2048C35.8115 28.9635 35.8115 28.5723 35.5701 28.331Z" fill="#FFF5F5"/>
<path d="M30.1947 14.1339H22.8398C22.4299 14.1339 22.0977 13.8016 22.0977 13.3918V11.829C22.0977 11.4191 22.4299 11.0869 22.8398 11.0869H30.1947C30.6045 11.0869 30.9368 11.4191 30.9368 11.829V13.3918C30.9368 13.8016 30.6045 14.1339 30.1947 14.1339Z" fill="#00D1FD"/>
<path d="M30.1947 20.1848H22.8398C22.4299 20.1848 22.0977 19.8525 22.0977 19.4427V17.8798C22.0977 17.47 22.4299 17.1377 22.8398 17.1377H30.1947C30.6045 17.1377 30.9368 17.47 30.9368 17.8798V19.4427C30.9368 19.8525 30.6045 20.1848 30.1947 20.1848Z" fill="#00D1FD"/>
<path d="M12.4017 23.2582C16.3623 23.2582 19.573 20.0475 19.573 16.087C19.573 12.1264 16.3623 8.91571 12.4017 8.91571C8.44115 8.91571 5.23047 12.1264 5.23047 16.087C5.23047 20.0475 8.44115 23.2582 12.4017 23.2582Z" fill="#FFD250"/>
<path d="M12.4016 23.2582C14.2031 23.2582 15.8481 22.5924 17.1078 21.4953C16.3937 19.5899 14.5564 18.2332 12.4016 18.2332C10.2468 18.2332 8.40945 19.5899 7.69531 21.4953C8.95492 22.5924 10.6 23.2582 12.4016 23.2582Z" fill="#00A8FF"/>
<path d="M9.44116 16.1793V16.8508C9.44116 18.4981 10.7766 19.8336 12.424 19.8336C14.0713 19.8336 15.4068 18.4981 15.4068 16.8508V16.1406L12.424 14.1612L9.44116 16.1793Z" fill="#CA6E59"/>
<path d="M12.424 12.1817C10.7766 12.1817 9.44116 13.5172 9.44116 15.1645V16.1406L10.3825 15.8706C11.128 15.6569 11.8224 15.2943 12.424 14.8049C12.9219 15.2745 13.5266 15.6161 14.186 15.8L15.4068 16.1406V15.1645C15.4068 13.5172 14.0713 12.1817 12.424 12.1817Z" fill="#518E9A"/>
<path d="M1.89844 11.7789C2.22203 11.7789 2.48438 11.5166 2.48438 11.193V6.85711H33.0807V20.9426C33.0807 21.2663 33.343 21.5285 33.6666 21.5285C33.9902 21.5285 34.2526 21.2663 34.2526 20.9426V3.30242C34.2527 1.48148 32.7712 0 30.9502 0H4.61484C2.79391 0 1.3125 1.48148 1.3125 3.30242V11.193C1.3125 11.5166 1.57484 11.7789 1.89844 11.7789ZM4.61484 1.17188H30.9502C32.125 1.17188 33.0808 2.12758 33.0808 3.30242V5.68531H2.48438V3.30242C2.48438 2.12758 3.44016 1.17188 4.61484 1.17188Z" fill="black"/>
<path d="M38.6858 30.016C38.6858 26.293 35.6568 23.264 31.9338 23.264C28.2107 23.264 25.1818 26.293 25.1818 30.016C25.1818 33.7391 28.2107 36.768 31.9338 36.768C32.3247 36.768 32.7078 36.7342 33.0808 36.6701V36.6977C33.0808 37.8724 32.1251 38.8282 30.9502 38.8282H4.61484C3.44008 38.8282 2.48438 37.8725 2.48438 36.6977V14.2398C2.48438 13.9162 2.22203 13.6539 1.89844 13.6539C1.57484 13.6539 1.3125 13.9162 1.3125 14.2398V36.6977C1.3125 38.5186 2.79391 40.0001 4.61484 40.0001H30.9502C32.7712 40.0001 34.2527 38.5186 34.2527 36.6977V36.3578C36.8369 35.4098 38.6858 32.9248 38.6858 30.016ZM31.9338 35.5962C28.8569 35.5962 26.3537 33.093 26.3537 30.016C26.3537 26.9391 28.8569 24.4359 31.9338 24.4359C35.0106 24.4359 37.5139 26.9391 37.5139 30.016C37.5139 33.093 35.0106 35.5962 31.9338 35.5962Z" fill="black"/>
<path d="M35.9859 27.9167L34.8428 26.7736C34.6154 26.5462 34.3131 26.421 33.9915 26.421C33.6699 26.421 33.3676 26.5462 33.1403 26.7735L31.0223 28.8914L30.7289 28.598C30.5015 28.3706 30.1992 28.2454 29.8777 28.2454C29.5561 28.2454 29.2538 28.3706 29.0264 28.598L27.8832 29.7412C27.4155 30.2089 27.4139 30.9692 27.8785 31.4389L29.2547 32.8704C29.7072 33.341 30.3413 33.611 30.9942 33.611C31.6387 33.611 32.2446 33.36 32.7003 32.9043L35.9857 29.6189C36.4552 29.1497 36.4552 28.3861 35.9859 27.9167ZM35.1572 28.7905L31.8719 32.0758C31.6375 32.3102 31.3259 32.4392 30.9944 32.4392C30.6586 32.4392 30.3324 32.3004 30.0997 32.0583L28.7202 30.6232C28.7175 30.6204 28.7149 30.6177 28.7121 30.615C28.6996 30.6025 28.6996 30.5823 28.7121 30.5699L29.8553 29.4267C29.8579 29.4242 29.8647 29.4174 29.8779 29.4174C29.8911 29.4174 29.8979 29.4242 29.9005 29.4267L30.3951 29.9213C30.7412 30.2673 31.3042 30.267 31.6502 29.9211L33.9692 27.6021C33.9717 27.5996 33.9785 27.5928 33.9917 27.5928C34.0049 27.5928 34.0117 27.5996 34.0143 27.6022L35.1574 28.7453C35.1697 28.7578 35.1696 28.7781 35.1572 28.7905Z" fill="black"/>
<path d="M31.5227 11.8289C31.5227 11.0966 30.927 10.5009 30.1947 10.5009H22.8398C22.1075 10.5009 21.5117 11.0966 21.5117 11.8289V13.3918C21.5117 14.1241 22.1075 14.7198 22.8398 14.7198H30.1947C30.927 14.7198 31.5227 14.1241 31.5227 13.3918V11.8289ZM30.3509 13.3918C30.3509 13.478 30.2808 13.548 30.1947 13.548H22.8398C22.7537 13.548 22.6836 13.478 22.6836 13.3918V11.8289C22.6836 11.7428 22.7537 11.6728 22.8398 11.6728H30.1947C30.2808 11.6728 30.3509 11.7428 30.3509 11.8289V13.3918Z" fill="black"/>
<path d="M30.1947 20.7707C30.927 20.7707 31.5227 20.1749 31.5227 19.4427V17.8798C31.5227 17.1476 30.927 16.5518 30.1947 16.5518H22.8398C22.1075 16.5518 21.5117 17.1476 21.5117 17.8798V19.4427C21.5117 20.1749 22.1075 20.7707 22.8398 20.7707H30.1947ZM22.6836 19.4427V17.8798C22.6836 17.7937 22.7537 17.7237 22.8398 17.7237H30.1947C30.2808 17.7237 30.3509 17.7937 30.3509 17.8798V19.4427C30.3509 19.5288 30.2808 19.5988 30.1947 19.5988H22.8398C22.7537 19.5988 22.6836 19.5288 22.6836 19.4427Z" fill="black"/>
<path d="M22.098 25.4019H5.50391C5.18031 25.4019 4.91797 25.6641 4.91797 25.9878C4.91797 26.3115 5.18031 26.5737 5.50391 26.5737H22.098C22.4216 26.5737 22.6839 26.3115 22.6839 25.9878C22.6839 25.6641 22.4216 25.4019 22.098 25.4019Z" fill="black"/>
<path d="M22.098 28.6739H5.50391C5.18031 28.6739 4.91797 28.9362 4.91797 29.2598C4.91797 29.5835 5.18031 29.8458 5.50391 29.8458H22.098C22.4216 29.8458 22.6839 29.5835 22.6839 29.2598C22.6839 28.9362 22.4216 28.6739 22.098 28.6739Z" fill="black"/>
<path d="M22.098 31.946H5.50391C5.18031 31.946 4.91797 32.2083 4.91797 32.532C4.91797 32.8557 5.18031 33.1179 5.50391 33.1179H22.098C22.4216 33.1179 22.6839 32.8557 22.6839 32.532C22.6839 32.2083 22.4216 31.946 22.098 31.946Z" fill="black"/>
<path d="M22.098 35.2182H5.50391C5.18031 35.2182 4.91797 35.4805 4.91797 35.8041C4.91797 36.1278 5.18031 36.3901 5.50391 36.3901H22.098C22.4216 36.3901 22.6839 36.1278 22.6839 35.8041C22.6839 35.4805 22.4216 35.2182 22.098 35.2182Z" fill="black"/>
<path d="M25.0595 3.75854C25.3393 4.4651 26.444 4.00705 26.1416 3.3101C25.8613 2.60408 24.758 3.06205 25.0595 3.75854Z" fill="black"/>
<path d="M27.4488 4.0218C28.0736 4.45329 28.7378 3.45813 28.0988 3.04758C27.4739 2.61524 26.8105 3.61055 27.4488 4.0218Z" fill="black"/>
<path d="M29.4073 3.75853C29.6863 4.46525 30.7918 4.00689 30.4892 3.31009C30.2099 2.60517 29.1053 3.06134 29.4073 3.75853Z" fill="black"/>
<path d="M7.27711 21.9067C7.29727 21.9272 7.31891 21.9463 7.34219 21.9638C8.70125 23.1351 10.4692 23.8441 12.3998 23.8441C14.3303 23.8441 16.0982 23.1351 17.4572 21.9641C17.4807 21.9465 17.5024 21.9272 17.5227 21.9066C19.1368 20.4841 20.157 18.4026 20.157 16.087C20.157 11.8097 16.6771 8.32983 12.3998 8.32983C8.12242 8.32983 4.64258 11.8097 4.64258 16.087C4.64266 18.4026 5.66289 20.4841 7.27711 21.9067ZM8.40703 21.3188C8.76867 20.5758 9.33336 19.9438 10.0358 19.5008C10.6686 20.0715 11.5059 20.4195 12.4232 20.4195C13.3309 20.4195 14.1599 20.0784 14.7904 19.5183C15.4812 19.9605 16.0356 20.583 16.393 21.3185C15.2845 22.1667 13.9004 22.6722 12.3999 22.6722C10.8995 22.6723 9.51555 22.1669 8.40703 21.3188ZM10.0262 16.8508V16.4935C11.2637 16.403 11.9973 16.0312 12.4232 15.6747C12.8491 16.0312 13.5827 16.4031 14.8201 16.4935V16.8508C14.8201 18.1724 13.7448 19.2476 12.4232 19.2476C11.1016 19.2476 10.0262 18.1724 10.0262 16.8508ZM14.82 15.3183C13.5489 15.2077 13.1138 14.7491 13.0027 14.5952C12.8694 14.4111 12.6527 14.301 12.4231 14.301C12.1935 14.301 11.9769 14.411 11.8434 14.5955C11.7323 14.7491 11.2973 15.2077 10.0262 15.3183V15.1644C10.0262 13.8428 11.1015 12.7676 12.4231 12.7676C13.7448 12.7676 14.82 13.8428 14.82 15.1644V15.3183ZM12.3998 9.50163C16.031 9.50163 18.9852 12.4558 18.9852 16.0869C18.9852 17.7825 18.3407 19.3302 17.2843 20.4987C16.8559 19.7405 16.2563 19.0911 15.5305 18.6026C15.8237 18.0848 15.992 17.4872 15.992 16.8508V15.1645C15.992 13.1967 14.391 11.5958 12.4232 11.5958C10.4554 11.5958 8.85445 13.1967 8.85445 15.1645V16.8508C8.85445 17.4781 9.01773 18.0678 9.30312 18.5805C8.5632 19.0716 7.9507 19.7306 7.5157 20.4991C6.45914 19.3305 5.81461 17.7827 5.81461 16.087C5.81453 12.4558 8.76867 9.50163 12.3998 9.50163Z" fill="black"/>
</g>
<defs>
<clipPath id="clip0_1384_18806">
<rect width="40" height="40" fill="white"/>
</clipPath>
</defs>
</svg>
