<svg width="40" height="40" viewBox="0 0 40 40" fill="none" xmlns="http://www.w3.org/2000/svg">
<g clip-path="url(#clip0_1384_18853)">
<path fill-rule="evenodd" clip-rule="evenodd" d="M23.0725 2.27633C22.3857 3.24336 21.2779 3.70227 20.1084 3.50414C19.0212 3.31977 18.1121 3.51852 17.312 4.3186C16.5116 5.11891 16.3134 6.02758 16.4975 7.11508C16.6956 8.28453 16.2367 9.39243 15.2696 10.0792C14.3705 10.7179 13.8682 11.5009 13.8682 12.6326C13.8682 13.7642 14.3705 14.5473 15.2696 15.1859C16.2367 15.8727 16.6956 16.9806 16.4975 18.1501C16.3131 19.2373 16.5118 20.1464 17.3119 20.9465C18.1122 21.7468 19.0209 21.9451 20.1084 21.761C21.2779 21.5629 22.3857 22.0217 23.0725 22.9888C23.7112 23.888 24.4943 24.3902 25.6259 24.3902C26.7575 24.3902 27.5406 23.8879 28.1793 22.9888C28.8661 22.0217 29.9739 21.5628 31.1435 21.7609C32.2307 21.9453 33.1398 21.7466 33.9399 20.9465C34.7402 20.1462 34.9385 19.2375 34.7544 18.15C34.5563 16.9806 35.0151 15.8727 35.9822 15.1859C36.8814 14.5473 37.3837 13.7641 37.3837 12.6325C37.3837 11.5009 36.8814 10.7178 35.9822 10.0791C35.0152 9.39235 34.5563 8.28446 34.7544 7.115C34.9387 6.02782 34.74 5.11868 33.94 4.3186C33.1396 3.51829 32.231 3.32 31.1435 3.50407C29.974 3.70219 28.8661 3.24336 28.1793 2.27633C27.5407 1.37719 26.7575 0.874847 25.6259 0.874847C24.4943 0.874847 23.7112 1.37719 23.0725 2.27633Z" fill="#FCDB35"/>
<path fill-rule="evenodd" clip-rule="evenodd" d="M13.8682 12.6326C13.8682 13.7642 14.3706 14.5473 15.2696 15.1859C16.2367 15.8728 16.6957 16.9807 16.4975 18.1502C16.3132 19.2373 16.5119 20.1465 17.312 20.9466C18.1123 21.747 19.021 21.9452 20.1084 21.7611C21.2779 21.563 22.3858 22.0219 23.0726 22.9889C23.5789 23.7016 24.176 24.1651 24.9654 24.3266C26.2449 24.2467 26.6786 23.7016 27.1849 22.9889C27.9932 21.851 29.1994 21.5855 30.5438 21.6894C31.4064 21.756 32.1771 21.4472 32.755 20.8031C33.4414 20.038 33.6067 19.1732 33.4335 18.1502C33.2353 16.9808 33.6942 15.8729 34.6613 15.186C35.5604 14.5474 36.0628 13.7644 36.0628 12.6327C36.0628 11.5009 35.5604 10.718 34.6613 10.0793C33.6943 9.39242 33.2354 8.28461 33.4335 7.11508C33.6066 6.09211 33.4414 5.22727 32.755 4.46219C32.1771 3.81813 31.4064 3.5093 30.5438 3.57594C29.1995 3.67985 27.9932 3.41438 27.1849 2.27641C26.6786 1.56367 26.2449 1.01859 24.9654 0.938751C24.176 1.10024 23.5789 1.56367 23.0726 2.27641C22.3858 3.24344 21.2779 3.70235 20.1084 3.50422C19.021 3.32016 18.1122 3.51836 17.312 4.31875C16.512 5.11883 16.3132 6.02797 16.4975 7.11516C16.6957 8.28461 16.2367 9.3925 15.2696 10.0794C14.3705 10.718 13.8682 11.501 13.8682 12.6327V12.6326Z" fill="#FFEB87"/>
<path d="M16.5211 19.7791C17.4635 17.5057 16.3844 14.8988 14.111 13.9565C11.8375 13.0141 9.23064 14.0932 8.2883 16.3666C7.34595 18.64 8.42502 21.247 10.6985 22.1893C12.9719 23.1316 15.5788 22.0526 16.5211 19.7791Z" fill="#2DD62D"/>
<path fill-rule="evenodd" clip-rule="evenodd" d="M12.0028 22.506C9.72766 22.3059 7.94336 20.3959 7.94336 18.0687C7.94336 15.7415 9.72773 13.8316 12.0028 13.6314C14.2779 13.8316 16.0623 15.7416 16.0623 18.0687C16.0623 20.3958 14.278 22.3058 12.0028 22.506Z" fill="#43F043"/>
<path fill-rule="evenodd" clip-rule="evenodd" d="M26.7039 29.1743C27.3658 28.0606 26.5273 26.6499 25.2329 26.6989C14.5948 26.6989 14.5759 18.0488 4.625 30.8462L9.89094 36.3667C12.2364 34.0014 15.0246 33.8922 18.0998 34.0761C19.7773 34.1765 21.7791 34.4187 23.6158 34.3781C26.182 34.3213 27.7548 33.6248 30.0082 32.4311C32.5737 31.072 37.0327 28.3652 37.8106 27.3427C38.9238 25.8791 37.4866 24.5008 35.7886 25.4811C33.7916 26.6341 28.5037 29.1559 25.7797 29.9157C26.1919 29.737 26.5139 29.4941 26.7039 29.1743Z" fill="#FDB0A0"/>
<path fill-rule="evenodd" clip-rule="evenodd" d="M26.7039 29.1743C27.3658 28.0606 26.5273 26.6499 25.2329 26.6989C14.5948 26.6989 14.5759 18.0488 4.625 30.8462L8.68984 35.1075C11.1473 32.6838 14.0609 32.5723 17.2714 32.7644C19.0398 32.8702 21.1502 33.1255 23.0863 33.0827C25.7916 33.0229 27.4496 32.2886 29.8252 31.0302C32.5031 29.6116 37.1373 26.8004 38.0245 25.6988C37.6564 25.134 36.7659 24.917 35.7887 25.4811C33.7916 26.6341 28.5038 29.1559 25.7798 29.9157C26.192 29.737 26.514 29.4941 26.704 29.1743H26.7039Z" fill="#FFCEC0"/>
<path fill-rule="evenodd" clip-rule="evenodd" d="M26.7038 29.1743C27.22 28.3056 26.8234 27.2562 26.0095 26.8598C26.5985 27.505 26.2034 28.421 25.2795 28.7571C24.7681 28.9431 24.0791 29.031 23.3302 29.0494C21.3745 29.0972 19.1242 28.6384 18.2344 28.1752C17.9207 28.0122 17.5342 28.1343 17.3711 28.448C17.2081 28.7616 17.3302 29.1482 17.6438 29.3113C18.672 29.8463 21.2033 30.3782 23.3602 30.3254C24.2511 30.3036 25.0938 30.18 25.7795 29.9156C26.1917 29.7369 26.5137 29.494 26.7037 29.1742L26.7038 29.1743Z" fill="#FDB0A0"/>
<path fill-rule="evenodd" clip-rule="evenodd" d="M1.79688 31.6056L4.23484 29.1677C4.71344 28.6891 5.49656 28.6892 5.97508 29.1677L11.771 34.9636C12.2496 35.4421 12.2496 36.2253 11.771 36.7039L9.33312 39.1419L1.79695 31.6057L1.79688 31.6056Z" fill="#4EB1FC"/>
<path fill-rule="evenodd" clip-rule="evenodd" d="M1.79688 31.6056L4.23484 29.1677C4.7132 28.6894 5.49586 28.6892 5.97453 29.1671L5.97516 29.1677L10.5396 33.7322C11.0182 34.2108 11.0181 34.9939 10.5396 35.4725L8.10172 37.9104L1.79688 31.6056Z" fill="#85CAFF"/>
<path d="M32.1061 14.3668C33.0588 10.3365 30.5639 6.297 26.5336 5.34431C22.5033 4.39162 18.4638 6.88651 17.5111 10.9168C16.5584 14.9471 19.0533 18.9866 23.0836 19.9393C27.1139 20.892 31.1534 18.3971 32.1061 14.3668Z" fill="#FCDB35"/>
<path d="M32.9264 14.367C33.8791 10.3367 31.3842 6.2972 27.3539 5.34451C23.3236 4.39182 19.2841 6.88671 18.3314 10.917C17.3788 14.9473 19.8736 18.9868 23.9039 19.9395C27.9342 20.8922 31.9738 18.3973 32.9264 14.367Z" fill="white"/>
<path fill-rule="evenodd" clip-rule="evenodd" d="M25.6258 13.3756C28.309 13.3756 30.5329 15.3395 30.9401 17.908C29.5842 19.2759 27.704 20.1232 25.6258 20.1232C23.5476 20.1232 21.6675 19.2759 20.3115 17.908C20.7187 15.3395 22.9426 13.3757 25.6257 13.3757L25.6258 13.3756Z" fill="#4EB1FC"/>
<path fill-rule="evenodd" clip-rule="evenodd" d="M29.8546 18.8142C28.6515 19.6398 27.1952 20.1231 25.6258 20.1231C23.5476 20.1231 21.6675 19.2758 20.3115 17.908C20.6024 16.0732 21.8204 14.5472 23.4705 13.8249C23.6516 13.7954 23.832 13.7724 24.0104 13.7556C28.0229 13.3872 29.5975 16.553 29.8545 18.8141L29.8546 18.8142Z" fill="#85CAFF"/>
<path d="M28.0031 11.7773C28.5453 10.4694 27.9245 8.96963 26.6166 8.4275C25.3087 7.88537 23.8089 8.50616 23.2668 9.81407C22.7246 11.122 23.3454 12.6217 24.6533 13.1639C25.9613 13.706 27.461 13.0852 28.0031 11.7773Z" fill="#D9C5BF"/>
<path fill-rule="evenodd" clip-rule="evenodd" d="M24.9803 13.2761C23.8776 12.9898 23.0635 11.9877 23.0635 10.7954C23.0635 9.60315 23.8776 8.60104 24.9803 8.31464C26.083 8.60096 26.8971 9.60307 26.8971 10.7954C26.8971 11.9878 26.083 12.9898 24.9803 13.2761Z" fill="#E6D6D1"/>
<path fill-rule="evenodd" clip-rule="evenodd" d="M10.0099 17.9514C9.85924 17.6896 9.94885 17.3553 10.2098 17.2042C10.4715 17.0532 10.8059 17.1429 10.9573 17.4046L11.6325 18.5746L13.9269 16.2798C14.1412 16.0663 14.4872 16.0663 14.7004 16.2798C14.9146 16.4933 14.9146 16.8397 14.7004 17.0533L11.9021 19.8516C11.7989 19.9551 11.66 20.012 11.5154 20.012C11.4921 20.012 11.4676 20.0101 11.4442 20.0071C11.2756 19.9849 11.1271 19.8858 11.0421 19.7385L10.0099 17.9514ZM12.3988 14.1574C10.2441 14.1574 8.49041 15.9107 8.49041 18.0658C8.49041 20.2209 10.2441 21.9742 12.3988 21.9742C14.5535 21.9742 16.3067 20.2205 16.3067 18.0658C16.3067 15.9111 14.5535 14.1574 12.3988 14.1574ZM14.4021 12.6297C14.4021 12.9761 14.4574 13.2819 14.5685 13.5595C16.2427 14.3691 17.4003 16.0847 17.4003 18.0658C17.4003 18.6442 17.3012 19.1993 17.119 19.7163C17.2357 20.0198 17.4229 20.2992 17.6896 20.5654C18.3146 21.1902 19.0301 21.395 20.0106 21.2285C21.3934 20.9939 22.7035 21.5366 23.5153 22.6806C24.0918 23.4914 24.7425 23.8532 25.6252 23.8532C26.5078 23.8532 27.1597 23.4913 27.7355 22.6806C28.5481 21.5373 29.8582 20.9943 31.2402 21.2285C32.2346 21.3969 32.9287 21.1985 33.5613 20.5654C34.1863 19.9411 34.3909 19.2249 34.2244 18.2442C33.9902 16.8619 34.5332 15.5518 35.676 14.7396C36.4871 14.1638 36.8487 13.5127 36.8487 12.6296C36.8487 11.7466 36.4872 11.0955 35.676 10.5194C34.5331 9.70753 33.9902 8.39706 34.2244 7.01471C34.3924 6.02057 34.1946 5.3262 33.5613 4.69315C32.937 4.06886 32.2207 3.86432 31.2402 4.03042C29.8581 4.26503 28.5481 3.72198 27.7355 2.57917C27.1597 1.76807 26.509 1.40612 25.6252 1.40612C24.7413 1.40612 24.0918 1.768 23.5153 2.57917C22.7035 3.72245 21.3934 4.26503 20.0106 4.03042C19.0169 3.86245 18.3221 4.06057 17.6896 4.69354C17.0645 5.31831 16.8607 6.03417 17.0271 7.01471C17.2606 8.39706 16.7184 9.70753 15.5747 10.5194C14.7636 11.0956 14.4021 11.7463 14.4021 12.6296V12.6297ZM12.3988 23.0678C14.1113 23.0678 15.6248 22.2024 16.5271 20.8864C16.6411 21.0418 16.7699 21.1928 16.916 21.3389C17.7927 22.2156 18.8644 22.5319 20.1933 22.3071C21.1521 22.1444 22.0607 22.521 22.624 23.3132C23.4042 24.4124 24.3863 24.9467 25.6253 24.9467C26.8642 24.9467 27.8474 24.4124 28.6276 23.3132C29.1902 22.521 30.0988 22.1444 31.0576 22.3071C32.3865 22.5318 33.4589 22.2156 34.3349 21.3389C35.2115 20.4627 35.5285 19.3903 35.3026 18.0617C35.1403 17.1029 35.5168 16.1946 36.3096 15.6314C37.4084 14.8511 37.9427 13.8691 37.9427 12.6298C37.9427 11.3905 37.4084 10.4085 36.3096 9.62784C35.5169 9.06487 35.1403 8.1562 35.3026 7.19745C35.5278 5.86815 35.2115 4.79643 34.3349 3.92018C33.4582 3.04354 32.3865 2.72682 31.0576 2.95245C30.0988 3.11471 29.1902 2.73854 28.6276 1.94589C27.8474 0.846667 26.8653 0.312683 25.6253 0.312683C24.3853 0.312683 23.4043 0.846667 22.624 1.94589C22.0606 2.73854 21.1521 3.11471 20.1933 2.95245C18.8644 2.72729 17.7927 3.04393 16.916 3.92018C16.0394 4.79682 15.7231 5.86893 15.9483 7.19745C16.1106 8.1562 15.7341 9.06487 14.9417 9.62784C13.8425 10.4085 13.3082 11.3902 13.3082 12.6298C13.3082 12.8098 13.3217 12.9845 13.3444 13.1547C13.0379 13.096 12.7223 13.0639 12.3988 13.0639C9.64127 13.0639 7.39658 15.3079 7.39658 18.0658C7.39658 20.8237 9.64127 23.0678 12.3988 23.0678H12.3988ZM37.3801 27.0078C36.7456 27.8415 32.6903 30.3904 29.755 31.9453C27.6745 33.0467 26.1231 33.7735 23.6049 33.8289C22.3472 33.8571 21.0168 33.7498 19.7301 33.6458C19.1705 33.6007 18.6418 33.5585 18.1324 33.5279C16.1645 33.41 13.9145 33.3686 11.8803 34.2991L6.71455 29.1326C11.7809 23.1983 13.6769 23.9842 17.0817 25.3967C19.0628 26.2187 21.5286 27.2411 25.234 27.2411H25.2551C25.6614 27.2257 26.0256 27.4256 26.2338 27.7754C26.4417 28.1264 26.4428 28.5428 26.2356 28.8912C25.8591 29.5257 24.494 29.8545 22.5863 29.7709C20.7973 29.6929 18.9966 29.2655 18.2894 28.8976C18.0217 28.7583 17.691 28.8622 17.5521 29.1303C17.412 29.3981 17.5171 29.7287 17.7848 29.8677C18.7428 30.3663 20.742 30.7857 22.5389 30.8641C22.7396 30.8724 22.9463 30.8781 23.1576 30.8781C24.1145 30.8781 25.1474 30.7726 25.9623 30.4296C28.8061 29.6282 34.1115 27.0789 36.0659 25.9499C36.7381 25.5624 37.292 25.6679 37.5232 25.9296C37.7503 26.1883 37.6964 26.5905 37.3801 27.0078ZM11.3831 36.3153C11.5115 36.1873 11.5816 36.0156 11.5816 35.8322C11.5816 35.6489 11.5115 35.4764 11.3831 35.3483L5.58557 29.5507C5.31893 29.2845 4.88479 29.2845 4.61814 29.5507L2.56658 31.6023L9.3308 38.3673L11.3831 36.3154L11.3831 36.3153ZM38.3434 25.2071C38.924 25.8657 38.8871 26.8327 38.2504 27.6694C37.3496 28.8537 32.5278 31.7141 30.2668 32.9116C28.0488 34.0868 26.3878 34.8618 23.6295 34.9224C22.316 34.9514 20.9566 34.8422 19.6428 34.736C19.0888 34.6912 18.5654 34.6491 18.0668 34.6197C15.8496 34.4867 14.1136 34.5429 12.5573 35.1951C12.6341 35.3962 12.6755 35.6101 12.6755 35.8323C12.6755 36.3079 12.491 36.7541 12.1566 37.0889L9.7176 39.5271C9.61518 39.6296 9.47627 39.6875 9.33088 39.6875C9.18627 39.6875 9.04729 39.6296 8.94416 39.5271L1.40682 31.989C1.19252 31.7759 1.19252 31.4294 1.40682 31.2163L3.8451 28.7773C4.3926 28.2298 5.21127 28.1164 5.8733 28.4353C8.43471 25.4334 10.4199 23.8876 12.2847 23.4357C14.1317 22.9891 15.6926 23.6368 17.5005 24.3865C19.4888 25.2116 21.7425 26.1462 25.2246 26.1477C26.0316 26.121 26.7599 26.5201 27.1741 27.2171C27.4621 27.7021 27.5506 28.2508 27.4403 28.775C30.2552 27.7056 34.0084 25.8759 35.5192 25.003C36.7302 24.3037 37.8106 24.6016 38.3434 25.2071ZM25.6253 5.67721C29.4591 5.67721 32.5778 8.79589 32.5778 12.6293C32.5778 14.1736 32.0713 15.6016 31.2169 16.7568C30.8724 15.7974 30.2842 14.9335 29.5005 14.2583C28.9443 13.7785 28.3067 13.4114 27.6245 13.1678C28.3068 12.5957 28.741 11.7383 28.741 10.7811C28.741 9.06323 27.3435 7.66581 25.6253 7.66581C23.907 7.66581 22.5107 9.06323 22.5107 10.7811C22.5107 11.7384 22.9449 12.5958 23.6261 13.1678C22.9442 13.4114 22.3074 13.7785 21.7504 14.2583C20.9675 14.9335 20.3786 15.7973 20.034 16.7568C19.1792 15.6015 18.6731 14.1736 18.6731 12.6293C18.6731 8.79589 21.7917 5.67721 25.6252 5.67721H25.6253ZM25.6253 12.8029C24.5106 12.8029 23.6042 11.8958 23.6042 10.7811C23.6042 9.66643 24.5106 8.75971 25.6253 8.75971C26.7399 8.75971 27.6474 9.66651 27.6474 10.7811C27.6474 11.8957 26.7403 12.8029 25.6253 12.8029ZM20.8934 17.7174C21.3754 15.4972 23.3222 13.9138 25.6253 13.9138C27.9283 13.9138 29.8756 15.4972 30.3583 17.7174C29.116 18.8735 27.452 19.5818 25.6253 19.5818C23.7985 19.5818 22.1349 18.8735 20.8934 17.7174ZM25.6253 20.6757C21.1886 20.6757 17.5792 17.0664 17.5792 12.6292C17.5792 8.19214 21.1885 4.58315 25.6253 4.58315C30.062 4.58315 33.6717 8.19253 33.6717 12.6292C33.6717 17.066 30.062 20.6757 25.6253 20.6757Z" fill="black"/>
</g>
<defs>
<clipPath id="clip0_1384_18853">
<rect width="40" height="40" fill="white"/>
</clipPath>
</defs>
</svg>
