<svg width="40" height="40" viewBox="0 0 40 40" fill="none" xmlns="http://www.w3.org/2000/svg">
<path d="M20 4.21617V20H35.7838C35.7838 11.2828 28.7171 4.21617 20 4.21617Z" fill="#99E6FC"/>
<path d="M35.7838 20C35.7838 16.047 34.3305 12.4334 31.9292 9.6643C32.6685 11.4916 33.0766 13.4883 33.0766 15.5805C33.0766 17.1148 32.8569 18.5976 32.4486 20H35.7838Z" fill="#62DBFB"/>
<path d="M8.83911 31.1609C11.6954 34.0172 15.6414 35.7838 20 35.7838C28.7171 35.7838 35.7838 28.7172 35.7838 20H20L8.83911 31.1609Z" fill="#A2E62E"/>
<path d="M32.4484 20C30.5369 26.5659 24.4756 31.3643 17.2927 31.3643C14.7725 31.3643 12.391 30.7727 10.2776 29.7223L8.83911 31.1608C11.6954 34.0171 15.6414 35.7838 20 35.7838C28.7171 35.7838 35.7838 28.7171 35.7838 19.9999H32.4484V20Z" fill="#97D729"/>
<path d="M4.21606 20C4.21606 24.3586 5.9827 28.3045 8.83903 31.1609L19.9999 20V4.21617C11.2828 4.21617 4.21606 11.2828 4.21606 20Z" fill="#FFD15B"/>
<path d="M5.36353 25.9163C6.16431 27.8954 7.35392 29.6756 8.83907 31.1608L10.2776 29.7223C8.39587 28.787 6.72673 27.4882 5.36353 25.9163Z" fill="#FFC344"/>
<path d="M20 27.8919C24.3586 27.8919 27.8919 24.3586 27.8919 20C27.8919 15.6414 24.3586 12.1081 20 12.1081C15.6415 12.1081 12.1082 15.6414 12.1082 20C12.1082 24.3586 15.6415 27.8919 20 27.8919Z" fill="#FE76A8"/>
<path d="M24.1424 13.282C24.8864 14.4861 25.3162 15.9049 25.3162 17.4243C25.3162 21.7829 21.7829 25.3162 17.4243 25.3162C15.905 25.3162 14.486 24.8864 13.282 24.1423C14.6723 26.3923 17.1609 27.8919 20 27.8919C24.3586 27.8919 27.8919 24.3586 27.8919 20C27.8919 17.1609 26.3924 14.6723 24.1424 13.282Z" fill="#FE5694"/>
<path d="M17.2927 22.6612V17.3388C17.2927 16.5902 18.1094 16.1279 18.7512 16.513L23.1866 19.1742C23.81 19.5483 23.81 20.4518 23.1866 20.8259L18.7512 23.487C18.1094 23.8721 17.2927 23.4098 17.2927 22.6612Z" fill="#DFF6FD"/>
<path d="M18.2563 24.213C18.5306 24.213 18.8046 24.1384 19.0527 23.9895L23.488 21.3284C23.9589 21.0458 24.2401 20.5492 24.2401 20.0001C24.2401 19.4509 23.9589 18.9544 23.488 18.6718L19.0527 16.0106C18.5679 15.7199 17.9847 15.7124 17.4926 15.991C17.0005 16.2695 16.7068 16.7735 16.7068 17.3389V22.6613C16.7068 23.2267 17.0005 23.7307 17.4926 24.0092C17.7328 24.1452 17.9947 24.213 18.2563 24.213ZM17.8787 17.3388C17.8787 17.1404 18.0124 17.0433 18.07 17.0107C18.1044 16.9912 18.1725 16.9603 18.258 16.9603C18.3157 16.9603 18.3813 16.9744 18.4498 17.0155L22.8851 19.6766C23.0505 19.7758 23.0683 19.9358 23.0683 20C23.0683 20.0642 23.0505 20.2242 22.8851 20.3234L18.4498 22.9845C18.2798 23.0867 18.1276 23.022 18.0701 22.9894C18.0126 22.9568 17.8787 22.8597 17.8787 22.6612L17.8787 17.3388Z" fill="black"/>
<path d="M32.3113 3.53945H33.1005C33.4241 3.53945 33.6864 3.27719 33.6864 2.95351C33.6864 2.62984 33.4241 2.36758 33.1005 2.36758H32.3113C31.9877 2.36758 31.7253 2.62984 31.7253 2.95351C31.7253 3.27719 31.9877 3.53945 32.3113 3.53945Z" fill="black"/>
<path d="M35.626 2.36758C35.3024 2.36758 35.04 2.62984 35.04 2.95351C35.04 3.27719 35.3024 3.53945 35.626 3.53945H37.8357C38.1593 3.53945 38.4217 3.27719 38.4217 2.95351C38.4217 2.62984 38.1593 2.36758 37.8357 2.36758H35.626Z" fill="black"/>
<path d="M32.3113 1.17188H39.414C39.7376 1.17188 40 0.909609 40 0.585938C40 0.262266 39.7376 0 39.414 0H32.3113C31.9877 0 31.7253 0.262266 31.7253 0.585938C31.7253 0.909609 31.9877 1.17188 32.3113 1.17188Z" fill="black"/>
<path d="M39.4141 4.73508H32.3113C32.1559 4.73508 32.0069 4.7968 31.897 4.90664L29.8659 6.93789C27.0494 4.81 23.597 3.63141 20.0041 3.63047C20.0027 3.63047 20.0014 3.63023 20 3.63023C19.9987 3.63023 19.9973 3.63039 19.9959 3.63047C15.2541 3.63164 10.9778 5.66008 7.98625 8.89375L6.52461 7.43211C6.41477 7.32226 6.2657 7.26055 6.11031 7.26055H0.585938C0.262344 7.26055 0 7.52281 0 7.84648C0 8.17016 0.262344 8.43242 0.585938 8.43242H5.86758L7.21945 9.7843C4.97508 12.5864 3.63047 16.1389 3.63047 20C3.63047 21.7339 3.90062 23.4425 4.43344 25.0784C4.51406 25.3258 4.74359 25.483 4.99047 25.483C5.05062 25.483 5.1118 25.4737 5.17203 25.454C5.47969 25.3538 5.64789 25.023 5.54773 24.7154C5.05312 23.197 4.80234 21.6105 4.80234 20C4.80234 16.4621 6.01758 13.2027 8.05242 10.6173L9.74055 12.3054C9.85492 12.4198 10.0049 12.477 10.1548 12.477C10.3048 12.477 10.4548 12.4198 10.5691 12.3054C10.798 12.0765 10.798 11.7055 10.5691 11.4767L8.81492 9.7225C11.4711 6.83406 15.2284 4.97422 19.4141 4.81469V11.543C17.8323 11.6504 16.3295 12.1914 15.0371 13.126C14.7749 13.3156 14.7161 13.682 14.9057 13.9442C15.0953 14.2062 15.4617 14.2652 15.7238 14.0756C16.9729 13.1723 18.4504 12.6946 19.9967 12.6939C19.9978 12.6939 19.9989 12.6941 20 12.6941C20.0012 12.6941 20.0024 12.6939 20.0036 12.6939C24.029 12.6959 27.3035 15.9701 27.3062 19.9952C27.3062 19.9969 27.3059 19.9984 27.3059 20.0001C27.3059 20.0017 27.3062 20.0033 27.3062 20.0049C27.3036 24.0312 24.027 27.3062 20 27.3062C15.9713 27.3062 12.6937 24.0287 12.6937 20C12.6937 18.5218 13.1328 17.0982 13.9634 15.883C14.146 15.6159 14.0775 15.2512 13.8104 15.0687C13.5432 14.886 13.1786 14.9545 12.996 15.2217C12.0316 16.6325 11.5219 18.2848 11.5219 20C11.5219 22.127 12.3094 24.0734 13.608 25.5634L8.845 30.3263C7.96797 29.378 7.20352 28.3089 6.57812 27.1347C6.42602 26.8491 6.07117 26.741 5.78547 26.8929C5.49984 27.045 5.39156 27.3998 5.54375 27.6855C8.39633 33.042 13.9355 36.3695 20 36.3695C22.144 36.3695 24.1926 35.9545 26.0708 35.2018L31.2665 39.8507C31.3739 39.9468 31.513 40 31.6572 40H39.4141C39.7377 40 40 39.7377 40 39.4141C40 39.0904 39.7377 38.8281 39.4141 38.8281H31.8811L27.2421 34.6774C32.6437 32.0013 36.367 26.4309 36.3694 20.0061C36.3694 20.0041 36.3697 20.002 36.3697 20C36.3697 19.9982 36.3695 19.9964 36.3694 19.9945C36.3684 17.0387 35.571 14.1418 34.0631 11.6167C33.8972 11.3389 33.5376 11.2482 33.2597 11.4141C32.9819 11.58 32.8911 11.9398 33.057 12.2176C34.3576 14.3955 35.0877 16.872 35.1853 19.414H28.4575C28.1688 15.2052 24.7948 11.8312 20.5859 11.5424V4.81492C23.6559 4.93297 26.5913 5.97531 29.0282 7.77555L27.0823 9.72141C26.8535 9.95031 26.8535 10.3212 27.0823 10.5501C27.1967 10.6645 27.3467 10.7216 27.4966 10.7216C27.6466 10.7216 27.7966 10.6645 27.9109 10.5501L29.9485 8.51242C30.505 8.99437 31.0303 9.51828 31.5178 10.084C31.7291 10.3291 32.0991 10.3566 32.3442 10.1453C32.5893 9.93406 32.6168 9.56406 32.4055 9.31891C31.8992 8.73133 31.3552 8.18531 30.7795 7.68156L32.5541 5.90695H39.4141C39.7377 5.90695 40 5.64469 40 5.32102C40 4.99734 39.7377 4.73508 39.4141 4.73508ZM26.296 33.8309L24.3893 32.1249C24.1482 31.909 23.7777 31.9297 23.562 32.1709C23.3462 32.412 23.3667 32.7824 23.6079 32.9982L25.0865 34.3212C23.4953 34.888 21.7833 35.1977 20 35.1977C16.1021 35.1977 12.4382 33.7166 9.67344 31.1553L14.4366 26.3921C15.9266 27.6906 17.873 28.4781 20 28.4781C24.4779 28.4781 28.1555 24.9885 28.4575 20.5859H35.1852C34.9609 26.4713 31.3748 31.5098 26.296 33.8309Z" fill="black"/>
<path d="M0.585938 6.06484H1.37516C1.69875 6.06484 1.96109 5.80258 1.96109 5.4789C1.96109 5.15523 1.69875 4.89297 1.37516 4.89297H0.585938C0.262344 4.89297 0 5.15523 0 5.4789C0 5.80258 0.262344 6.06484 0.585938 6.06484Z" fill="black"/>
<path d="M3.90063 4.89297C3.57704 4.89297 3.3147 5.15523 3.3147 5.4789C3.3147 5.80258 3.57704 6.06484 3.90063 6.06484H6.1104C6.43399 6.06484 6.69634 5.80258 6.69634 5.4789C6.69634 5.15523 6.43399 4.89297 6.1104 4.89297H3.90063Z" fill="black"/>
<path d="M0.585938 3.69727H7.68867C8.01227 3.69727 8.27461 3.435 8.27461 3.11133C8.27461 2.78766 8.01227 2.52539 7.68867 2.52539H0.585938C0.262344 2.52539 0 2.78766 0 3.11133C0 3.435 0.262344 3.69727 0.585938 3.69727Z" fill="black"/>
<path d="M32.3113 36.4605C31.9877 36.4605 31.7253 36.7228 31.7253 37.0465C31.7253 37.3702 31.9877 37.6324 32.3113 37.6324H33.1005C33.4241 37.6324 33.6864 37.3702 33.6864 37.0465C33.6864 36.7228 33.4241 36.4605 33.1005 36.4605H32.3113Z" fill="black"/>
<path d="M35.626 36.4605C35.3024 36.4605 35.04 36.7228 35.04 37.0465C35.04 37.3702 35.3024 37.6324 35.626 37.6324H37.8357C38.1593 37.6324 38.4217 37.3702 38.4217 37.0465C38.4217 36.7228 38.1593 36.4605 37.8357 36.4605H35.626Z" fill="black"/>
<path d="M40 34.679C40 34.3553 39.7376 34.093 39.414 34.093H32.3113C31.9877 34.093 31.7253 34.3553 31.7253 34.679C31.7253 35.0027 31.9877 35.2649 32.3113 35.2649H39.414C39.7376 35.2649 40 35.0026 40 34.679Z" fill="black"/>
</svg>
