<svg width="24" height="24" viewBox="0 0 24 24" fill="none" xmlns="http://www.w3.org/2000/svg">
<g clip-path="url(#clip0_1698_17482)">
<path d="M24 12.2505C24 5.62309 18.6274 0.250504 12 0.250504C5.37259 0.250504 0 5.62309 0 12.2505C0 17.8783 3.87432 22.6003 9.10108 23.8971V15.9175H6.62659V12.2505H9.10108V10.6704C9.10108 6.58597 10.9495 4.69285 14.9594 4.69285C15.7196 4.69285 17.0314 4.84189 17.568 4.99098V8.31517C17.2848 8.28536 16.7929 8.27043 16.1817 8.27043C14.214 8.27043 13.4538 9.01578 13.4538 10.9536V12.2505H17.3734L16.7001 15.9175H13.4538V24.1626C19.3955 23.445 24 18.3858 24 12.2505Z" fill="#0866FF"/>
<path d="M16.6999 15.9175L17.3733 12.2505H13.4537V10.9536C13.4537 9.01573 14.2139 8.27044 16.1816 8.27044C16.7928 8.27044 17.2847 8.28532 17.5679 8.31512V4.99098C17.0313 4.8419 15.7195 4.69281 14.9593 4.69281C10.9494 4.69281 9.10096 6.58597 9.10096 10.6704V12.2505H6.62646V15.9175H9.10096V23.8971C10.0294 24.1274 11.0002 24.2505 11.9999 24.2505C12.4921 24.2505 12.9771 24.2202 13.4537 24.1626V15.9175H16.6999Z" fill="white"/>
</g>
<defs>
<clipPath id="clip0_1698_17482">
<rect width="24" height="24" fill="white"/>
</clipPath>
</defs>
</svg>
